<svg xmlns="http://www.w3.org/2000/svg" fill="none" viewBox="0 0 32 32"><g filter="url(#svg-8c4771df-3351-4e25-a737-fa6338e5b7cf-a)"><path fill="url(#svg-45500c4a-78ff-444f-bcd7-f45dfc79cf2c-b)" d="m7.078 26.908 3.723-3.294 9.988-1.235 5.146 4.58a1.644 1.644 0 0 1-1.093 2.872H8.185a1.671 1.671 0 0 1-1.107-2.923"/><path fill="url(#svg-7f58bbe2-22d8-437f-b461-5819e89da5e7-c)" d="m7.078 26.908 3.723-3.294 9.988-1.235 5.146 4.58a1.644 1.644 0 0 1-1.093 2.872H8.185a1.671 1.671 0 0 1-1.107-2.923"/><path fill="url(#svg-49593ffb-ab1e-48dc-ae9a-2f8e3e758a97-d)" d="m7.078 26.908 3.723-3.294 9.988-1.235 5.146 4.58a1.644 1.644 0 0 1-1.093 2.872H8.185a1.671 1.671 0 0 1-1.107-2.923"/></g><path fill="url(#svg-dcbc1de4-1286-4a81-882d-2e07b21024c2-e)" d="m7.078 26.908 3.723-3.294 9.988-1.235 5.146 4.58a1.644 1.644 0 0 1-1.093 2.872H8.185a1.671 1.671 0 0 1-1.107-2.923"/><g filter="url(#svg-bc2fe2bc-9ba0-41c3-8969-985feddc5a32-f)"><path fill="url(#svg-82249a4c-4a4d-43c4-80bc-b6aef2ffc866-g)" d="M16.5 26.87c5.515 0 9.986-4.47 9.986-9.986 0-5.515-4.47-9.986-9.986-9.986-5.515 0-9.986 4.47-9.986 9.986 0 5.515 4.47 9.986 9.986 9.986"/><path fill="url(#svg-73b29655-9e58-42b4-a5fa-c76136b7e86c-h)" d="M16.5 26.87c5.515 0 9.986-4.47 9.986-9.986 0-5.515-4.47-9.986-9.986-9.986-5.515 0-9.986 4.47-9.986 9.986 0 5.515 4.47 9.986 9.986 9.986"/></g><g filter="url(#svg-919473c0-b756-4ad3-af08-878c446e5f7f-i)"><path fill="url(#svg-97a943f8-e6d5-49ed-9149-ab5a596b5566-j)" d="M16.5 23.723a6.926 6.926 0 1 0 0-13.853 6.926 6.926 0 0 0 0 13.853"/><path fill="url(#svg-da1fc9eb-5d58-4132-87c6-9e387dc60903-k)" d="M16.5 23.723a6.926 6.926 0 1 0 0-13.853 6.926 6.926 0 0 0 0 13.853"/></g><path fill="url(#svg-8cc9c7d6-df8a-4dd8-a1aa-672d1ad14757-l)" d="M16.5 23.723a6.926 6.926 0 1 0 0-13.853 6.926 6.926 0 0 0 0 13.853"/><g filter="url(#svg-0d9ae1ea-0494-4e29-bb30-68bdadac9279-m)"><path fill="url(#svg-2ad264fe-8d19-48b2-b2d7-35ccf3684ff5-n)" fill-rule="evenodd" d="M16.881 13.334a1 1 0 0 0-1.999 0v3.996c0 .338.167.636.423.817l1.945 1.891a1 1 0 1 0 1.384-1.441l-1.753-1.705z" clip-rule="evenodd"/></g><path fill="url(#svg-a046e506-e6b5-4c7c-b37c-4229d944ef2c-o)" d="M6.306 2.804c-1.994 1.41-2.768 4.01-2.033 6.294.232.71 1.046.995 1.646.579l6.6-4.66c.591-.416.65-1.32.107-1.817-1.732-1.574-4.326-1.807-6.32-.396"/><path fill="url(#svg-5a6350da-03d7-4683-82e0-a153caccde11-p)" d="M6.306 2.804c-1.994 1.41-2.768 4.01-2.033 6.294.232.71 1.046.995 1.646.579l6.6-4.66c.591-.416.65-1.32.107-1.817-1.732-1.574-4.326-1.807-6.32-.396"/><path fill="url(#svg-c654800c-5924-4c5f-9f3c-4f950c54ba49-q)" d="M26.694 2.804c1.994 1.41 2.768 4.01 2.033 6.294-.232.71-1.046.995-1.646.579l-6.6-4.66c-.591-.416-.65-1.32-.107-1.817 1.732-1.574 4.326-1.807 6.32-.396"/><path fill="url(#svg-91e35497-8658-48bd-930d-e36884c2f41b-r)" d="M26.694 2.804c1.994 1.41 2.768 4.01 2.033 6.294-.232.71-1.046.995-1.646.579l-6.6-4.66c-.591-.416-.65-1.32-.107-1.817 1.732-1.574 4.326-1.807 6.32-.396"/><path fill="url(#svg-94d76373-b4f4-4a14-aafa-17c760edb656-s)" fill-rule="evenodd" d="M15.809 16.189a1 1 0 0 1 1.412-.029l2.032 1.976a1 1 0 0 1-1.385 1.44l-2.031-1.975a1 1 0 0 1-.028-1.412" clip-rule="evenodd"/><path fill="url(#svg-f62997bb-03a5-4bb4-aba3-854fe37d8ea5-t)" fill-rule="evenodd" d="M16.5 11.873a1 1 0 0 1 1 1v3.996a1 1 0 0 1-2 0v-3.997a1 1 0 0 1 1-1" clip-rule="evenodd"/><path fill="url(#svg-faf98fb2-5a79-4f59-b1c7-086ba3884869-u)" fill-rule="evenodd" d="M16.5 11.873a1 1 0 0 1 1 1v3.996a1 1 0 0 1-2 0v-3.997a1 1 0 0 1 1-1" clip-rule="evenodd"/><defs><linearGradient id="svg-45500c4a-78ff-444f-bcd7-f45dfc79cf2c-b" x1="8.024" x2="25.249" y1="28.172" y2="28.172" gradientUnits="userSpaceOnUse"><stop stop-color="#d4bde5"/><stop offset="1" stop-color="#e5caf2"/></linearGradient><linearGradient id="svg-7f58bbe2-22d8-437f-b461-5819e89da5e7-c" x1="17.073" x2="17.073" y1="30.254" y2="28.709" gradientUnits="userSpaceOnUse"><stop stop-color="#d4a6f6"/><stop offset="1" stop-color="#d4a6f6" stop-opacity="0"/></linearGradient><linearGradient id="svg-dcbc1de4-1286-4a81-882d-2e07b21024c2-e" x1="24.344" x2="23.563" y1="25.073" y2="25.916" gradientUnits="userSpaceOnUse"><stop stop-color="#f3e5f1"/><stop offset="1" stop-color="#f3e5f1" stop-opacity="0"/></linearGradient><linearGradient id="svg-97a943f8-e6d5-49ed-9149-ab5a596b5566-j" x1="11.25" x2="20.313" y1="12.12" y2="23.182" gradientUnits="userSpaceOnUse"><stop stop-color="#ffecff"/><stop offset="1" stop-color="#ddc8e2"/></linearGradient><linearGradient id="svg-2ad264fe-8d19-48b2-b2d7-35ccf3684ff5-n" x1="16.912" x2="16.912" y1="12.334" y2="20.317" gradientUnits="userSpaceOnUse"><stop stop-color="#c4afca"/><stop offset="1" stop-color="#cfa5cf"/></linearGradient><linearGradient id="svg-5a6350da-03d7-4683-82e0-a153caccde11-p" x1="10.219" x2="9.889" y1="6.695" y2="6.262" gradientUnits="userSpaceOnUse"><stop stop-color="#f88f6d"/><stop offset="1" stop-color="#f88f6d" stop-opacity="0"/></linearGradient><linearGradient id="svg-91e35497-8658-48bd-930d-e36884c2f41b-r" x1="24.5" x2="24.903" y1="7.978" y2="7.411" gradientUnits="userSpaceOnUse"><stop stop-color="#e76d2f"/><stop offset="1" stop-color="#e76d2f" stop-opacity="0"/></linearGradient><linearGradient id="svg-94d76373-b4f4-4a14-aafa-17c760edb656-s" x1="18.062" x2="17.725" y1="17.643" y2="19.753" gradientUnits="userSpaceOnUse"><stop stop-color="#ff4f5c"/><stop offset="1" stop-color="#f0368b"/></linearGradient><linearGradient id="svg-f62997bb-03a5-4bb4-aba3-854fe37d8ea5-t" x1="16.064" x2="17.927" y1="14.433" y2="14.433" gradientUnits="userSpaceOnUse"><stop stop-color="#3a234f"/><stop offset="1" stop-color="#3a323b"/></linearGradient><radialGradient id="svg-49593ffb-ab1e-48dc-ae9a-2f8e3e758a97-d" cx="0" cy="0" r="1" gradientTransform="rotate(104.908 -1.349 16.763)scale(5.09461 7.6923)" gradientUnits="userSpaceOnUse"><stop offset=".654" stop-color="#be87be"/><stop offset="1" stop-color="#be87be" stop-opacity="0"/></radialGradient><radialGradient id="svg-82249a4c-4a4d-43c4-80bc-b6aef2ffc866-g" cx="0" cy="0" r="1" gradientTransform="rotate(120.726 8.25 11.02)scale(18.104)" gradientUnits="userSpaceOnUse"><stop stop-color="#ff4995"/><stop offset="1" stop-color="#ff435c"/></radialGradient><radialGradient id="svg-73b29655-9e58-42b4-a5fa-c76136b7e86c-h" cx="0" cy="0" r="1" gradientTransform="rotate(90 -.192 16.692)scale(7.82942)" gradientUnits="userSpaceOnUse"><stop offset=".848" stop-color="#d2355c"/><stop offset="1" stop-color="#d2355c" stop-opacity="0"/></radialGradient><radialGradient id="svg-da1fc9eb-5d58-4132-87c6-9e387dc60903-k" cx="0" cy="0" r="1" gradientTransform="rotate(90 2.94 13.56)scale(13.75)" gradientUnits="userSpaceOnUse"><stop offset=".718" stop-color="#b89a9f" stop-opacity="0"/><stop offset="1" stop-color="#b89a9f"/></radialGradient><radialGradient id="svg-8cc9c7d6-df8a-4dd8-a1aa-672d1ad14757-l" cx="0" cy="0" r="1" gradientTransform="rotate(32.607 -18.659 32.133)scale(10.0904 8.90964)" gradientUnits="userSpaceOnUse"><stop offset=".887" stop-color="#b394a7" stop-opacity="0"/><stop offset=".977" stop-color="#b394a7"/></radialGradient><radialGradient id="svg-a046e506-e6b5-4c7c-b37c-4229d944ef2c-o" cx="0" cy="0" r="1" gradientTransform="rotate(190.592 6.572 1.878)scale(7.82074 8.79834)" gradientUnits="userSpaceOnUse"><stop stop-color="#ffdc56"/><stop offset=".593" stop-color="#ffb02e"/><stop offset="1" stop-color="#bf8942"/></radialGradient><radialGradient id="svg-c654800c-5924-4c5f-9f3c-4f950c54ba49-q" cx="0" cy="0" r="1" gradientTransform="rotate(186.047 14.474 1.708)scale(8.73611 15.1601)" gradientUnits="userSpaceOnUse"><stop stop-color="#ffff63"/><stop offset=".736" stop-color="#f1ae2c"/><stop offset="1" stop-color="#c48039"/></radialGradient><radialGradient id="svg-faf98fb2-5a79-4f59-b1c7-086ba3884869-u" cx="0" cy="0" r="1" gradientTransform="rotate(114.747 4.573 11.583)scale(1.21106 1.15474)" gradientUnits="userSpaceOnUse"><stop stop-color="#463c4b"/><stop offset="1" stop-color="#463c4b" stop-opacity="0"/></radialGradient><filter id="svg-8c4771df-3351-4e25-a737-fa6338e5b7cf-a" width="20.972" height="7.952" x="6.014" y="22.379" color-interpolation-filters="sRGB" filterUnits="userSpaceOnUse"><feFlood flood-opacity="0" result="BackgroundImageFix"/><feBlend in="SourceGraphic" in2="BackgroundImageFix" result="shape"/><feColorMatrix in="SourceAlpha" result="hardAlpha" values="0 0 0 0 0 0 0 0 0 0 0 0 0 0 0 0 0 0 127 0"/><feOffset dx="-.5" dy=".5"/><feGaussianBlur stdDeviation=".5"/><feComposite in2="hardAlpha" k2="-1" k3="1" operator="arithmetic"/><feColorMatrix values="0 0 0 0 0.980392 0 0 0 0 0.945098 0 0 0 0 1 0 0 0 1 0"/><feBlend in2="shape" result="effect1_innerShadow_18_13319"/><feColorMatrix in="SourceAlpha" result="hardAlpha" values="0 0 0 0 0 0 0 0 0 0 0 0 0 0 0 0 0 0 127 0"/><feOffset dx=".5" dy=".5"/><feGaussianBlur stdDeviation=".5"/><feComposite in2="hardAlpha" k2="-1" k3="1" operator="arithmetic"/><feColorMatrix values="0 0 0 0 0.576471 0 0 0 0 0.533333 0 0 0 0 0.584314 0 0 0 1 0"/><feBlend in2="effect1_innerShadow_18_13319" result="effect2_innerShadow_18_13319"/></filter><filter id="svg-bc2fe2bc-9ba0-41c3-8969-985feddc5a32-f" width="20.672" height="19.972" x="6.214" y="6.898" color-interpolation-filters="sRGB" filterUnits="userSpaceOnUse"><feFlood flood-opacity="0" result="BackgroundImageFix"/><feBlend in="SourceGraphic" in2="BackgroundImageFix" result="shape"/><feColorMatrix in="SourceAlpha" result="hardAlpha" values="0 0 0 0 0 0 0 0 0 0 0 0 0 0 0 0 0 0 127 0"/><feOffset dx=".4"/><feGaussianBlur stdDeviation=".4"/><feComposite in2="hardAlpha" k2="-1" k3="1" operator="arithmetic"/><feColorMatrix values="0 0 0 0 0.682353 0 0 0 0 0.25098 0 0 0 0 0.262745 0 0 0 1 0"/><feBlend in2="shape" result="effect1_innerShadow_18_13319"/><feColorMatrix in="SourceAlpha" result="hardAlpha" values="0 0 0 0 0 0 0 0 0 0 0 0 0 0 0 0 0 0 127 0"/><feOffset dx="-.3"/><feGaussianBlur stdDeviation=".3"/><feComposite in2="hardAlpha" k2="-1" k3="1" operator="arithmetic"/><feColorMatrix values="0 0 0 0 1 0 0 0 0 0.309804 0 0 0 0 0.588235 0 0 0 1 0"/><feBlend in2="effect1_innerShadow_18_13319" result="effect2_innerShadow_18_13319"/></filter><filter id="svg-919473c0-b756-4ad3-af08-878c446e5f7f-i" width="14.352" height="14.352" x="9.074" y="9.87" color-interpolation-filters="sRGB" filterUnits="userSpaceOnUse"><feFlood flood-opacity="0" result="BackgroundImageFix"/><feBlend in="SourceGraphic" in2="BackgroundImageFix" result="shape"/><feColorMatrix in="SourceAlpha" result="hardAlpha" values="0 0 0 0 0 0 0 0 0 0 0 0 0 0 0 0 0 0 127 0"/><feOffset dx="-.5" dy=".5"/><feGaussianBlur stdDeviation=".5"/><feComposite in2="hardAlpha" k2="-1" k3="1" operator="arithmetic"/><feColorMatrix values="0 0 0 0 0.866667 0 0 0 0 0.631373 0 0 0 0 0.776471 0 0 0 1 0"/><feBlend in2="shape" result="effect1_innerShadow_18_13319"/></filter><filter id="svg-0d9ae1ea-0494-4e29-bb30-68bdadac9279-m" width="5.559" height="9.482" x="14.132" y="11.584" color-interpolation-filters="sRGB" filterUnits="userSpaceOnUse"><feFlood flood-opacity="0" result="BackgroundImageFix"/><feBlend in="SourceGraphic" in2="BackgroundImageFix" result="shape"/><feGaussianBlur result="effect1_foregroundBlur_18_13319" stdDeviation=".375"/></filter></defs></svg>