<svg xmlns="http://www.w3.org/2000/svg" fill="none" viewBox="0 0 32 32"><g filter="url(#svg-9489287b-c51c-430c-826a-e63296c2b06c-a)"><rect width="27.906" height="27.906" x="2.047" y="2.055" fill="url(#svg-77eb7871-cf33-48b5-8167-4919e0a2408a-b)" rx="3.8"/></g><rect width="27.906" height="27.906" x="2.047" y="2.055" fill="url(#svg-7eb3f92e-001e-4d3a-ab0a-36520ebf8b4e-c)" rx="3.8"/><rect width="27.906" height="27.906" x="2.047" y="2.055" fill="url(#svg-5c739f53-364d-4e74-9eaf-ae38c8d5f8f1-d)" rx="3.8"/><rect width="27.906" height="27.906" x="2.047" y="2.055" fill="url(#svg-cbb66a72-965b-4574-b28a-94be543dbfed-e)" rx="3.8"/><g filter="url(#svg-f4075c79-af13-4fb9-ac89-1ecba38250a4-f)"><path fill="url(#svg-2068065b-93a3-418e-b291-6fa2509c9f3b-g)" d="M27.26 28.78a3.9 3.9 0 0 1-1.771.418h-3.984V8.134c0-.603.525-1.091 1.172-1.091h3.411c.647 0 1.171.488 1.171 1.09z"/></g><path fill="url(#svg-f3b6f5fd-c126-4878-afdc-ab76f10368b5-h)" fill-rule="evenodd" d="M11.523 2.055h-1v8.39H2.047v1h8.476v8.97H2.047v1h8.476v8.546h1v-8.547h9v8.547h1v-8.547h8.43v-1h-8.43v-8.969h8.43v-1h-8.43v-8.39h-1v8.39h-9zm9 9.39v8.97h-9v-8.97z" clip-rule="evenodd"/><path fill="url(#svg-a8f936d6-4da8-4f59-a54c-665c5d275db8-i)" fill-rule="evenodd" d="M11.523 2.055h-1v8.39H2.047v1h8.476v8.97H2.047v1h8.476v8.546h1v-8.547h9v8.547h1v-8.547h8.43v-1h-8.43v-8.969h8.43v-1h-8.43v-8.39h-1v8.39h-9zm9 9.39v8.97h-9v-8.97z" clip-rule="evenodd"/><path fill="url(#svg-85f0d554-163f-4a25-b8f0-9701b5b6fce1-j)" fill-rule="evenodd" d="M11.523 2.055h-1v8.39H2.047v1h8.476v8.97H2.047v1h8.476v8.546h1v-8.547h9v8.547h1v-8.547h8.43v-1h-8.43v-8.969h8.43v-1h-8.43v-8.39h-1v8.39h-9zm9 9.39v8.97h-9v-8.97z" clip-rule="evenodd"/><path fill="url(#svg-b7bca425-fef5-47fc-a7f3-59e66333dc4b-k)" fill-rule="evenodd" d="M11.523 2.055h-1v8.39H2.047v1h8.476v8.97H2.047v1h8.476v8.546h1v-8.547h9v8.547h1v-8.547h8.43v-1h-8.43v-8.969h8.43v-1h-8.43v-8.39h-1v8.39h-9zm9 9.39v8.97h-9v-8.97z" clip-rule="evenodd"/><path fill="url(#svg-6d4ad7cb-bb26-4c8f-ab14-402eae885a80-l)" fill-rule="evenodd" d="M11.523 2.055h-1v8.39H2.047v1h8.476v8.97H2.047v1h8.476v8.546h1v-8.547h9v8.547h1v-8.547h1.972v-1h-1.972v-8.969h1.972v-1h-1.972v-8.39h-1v8.39h-9zm9 9.39v8.97h-9v-8.97z" clip-rule="evenodd"/><path fill="url(#svg-33da0ded-bf44-4120-8aa9-6dd41abd56b8-m)" fill-rule="evenodd" d="M11.523 2.055h-1v8.39H2.047v1h8.476v8.97H2.047v1h8.476v8.546h1v-8.547h9v8.547h1v-8.547h1.972v-1h-1.972v-8.969h1.972v-1h-1.972v-8.39h-1v8.39h-9zm9 9.39v8.97h-9v-8.97z" clip-rule="evenodd"/><path fill="url(#svg-3d91bab8-3eaf-4bbd-bd2a-9db2acbf06d8-n)" fill-rule="evenodd" d="M11.523 2.055h-1v8.39H2.047v1h8.476v8.97H2.047v1h8.476v8.546h1v-8.547h9v8.547h1v-8.547h1.972v-1h-1.972v-8.969h1.972v-1h-1.972v-8.39h-1v8.39h-9zm9 9.39v8.97h-9v-8.97z" clip-rule="evenodd"/><g filter="url(#svg-f7dc8aac-dfc2-4652-8b22-29df2e2c898a-o)"><path fill="url(#svg-0dcf38ab-be41-4dbc-af2f-a1c313671116-p)" d="M18.24 29.387a6.5 6.5 0 0 1-1.772.238h-3.983V17.656c0-.342.524-.62 1.171-.62h3.412c.647 0 1.171.278 1.171.62z"/></g><g filter="url(#svg-1557e5a6-8117-48a3-bbd2-5d3403cbb7fb-q)"><path fill="url(#svg-fc82055e-ba1f-496c-b2b5-2c65f27694f0-r)" d="M9.11 28.437a4.4 4.4 0 0 1-1.77.366H3.357V10.382c0-.527.524-.954 1.171-.954H7.94c.647 0 1.172.427 1.172.954z"/></g><g filter="url(#svg-d7162002-1853-4298-b421-48f606796d8d-s)"><path fill="url(#svg-0a143a73-5ab4-4e71-8aa1-436c36e6ab15-t)" d="M27.967 29.5c-.539.294-1.157.461-1.814.461h-4.08V6.794a1.2 1.2 0 0 1 1.2-1.2h3.494a1.2 1.2 0 0 1 1.2 1.2z"/></g><path fill="url(#svg-22fe3177-c757-4b80-8354-d6afa63f23de-u)" d="M27.967 29.5c-.539.294-1.157.461-1.814.461h-4.08V6.794a1.2 1.2 0 0 1 1.2-1.2h3.494a1.2 1.2 0 0 1 1.2 1.2z"/><g filter="url(#svg-2eee102b-3794-4b92-928f-d14deea344e1-v)"><rect width=".865" height="22.501" x="26.394" y="6.527" fill="url(#svg-b4207d3e-cc0b-4bbc-812d-2b1b03d19185-w)" rx=".433"/></g><path fill="url(#svg-0484d3a0-66f6-422f-a293-f54d751c0a69-x)" d="M13.459 10.445h-1.936v-8.39h-1v8.39H2.047v1h8.476v8.97H2.047v1h8.476v8.546h1v-8.547h1.936v-1h-1.936v-8.969h1.936z"/><path fill="url(#svg-77e20fb6-7748-4dde-a747-3eb4dc458df8-y)" d="M13.459 10.445h-1.936v-8.39h-1v8.39H2.047v1h8.476v8.97H2.047v1h8.476v8.546h1v-8.547h1.936v-1h-1.936v-8.969h1.936z"/><g filter="url(#svg-40acf65e-1892-4f42-b63c-12146c953cf8-z)"><path fill="url(#svg-a811130b-fb4b-4ce0-84aa-eed5ddee11ea-A)" d="M18.947 29.961h-5.894V17.847a1.2 1.2 0 0 1 1.2-1.2h3.494a1.2 1.2 0 0 1 1.2 1.2z"/></g><g filter="url(#svg-fc74a0e1-89a3-49a8-bfd7-064c108ce510-B)"><rect width=".865" height="11.643" x="17.374" y="17.555" fill="url(#svg-0feec8f4-84d1-4fc6-9278-0fb9a99531f9-C)" rx=".433"/></g><g filter="url(#svg-8f9d8a8e-3436-41a6-9417-13e710c682f0-D)"><path fill="url(#svg-5cd0860f-66e6-4748-8de1-5bd1bf3ea22f-E)" d="M9.927 29.96h-4.08a3.8 3.8 0 0 1-1.814-.46V9.866a1.2 1.2 0 0 1 1.2-1.2h3.494a1.2 1.2 0 0 1 1.2 1.2z"/></g><g filter="url(#svg-560bb4a2-7da5-4be9-a605-3d9083d2668b-F)"><rect width=".865" height="19.77" x="8.678" y="9.428" fill="url(#svg-bba39349-09cd-4318-b119-cc62fb5b4aa8-G)" rx=".433"/></g><defs><linearGradient id="svg-77eb7871-cf33-48b5-8167-4919e0a2408a-b" x1="27.125" x2="11.875" y1="3.883" y2="23.32" gradientUnits="userSpaceOnUse"><stop stop-color="#d8d1e0"/><stop offset="1" stop-color="#d5c9e3"/></linearGradient><linearGradient id="svg-7eb3f92e-001e-4d3a-ab0a-36520ebf8b4e-c" x1="21.475" x2="21.475" y1="30.224" y2="27.926" gradientUnits="userSpaceOnUse"><stop stop-color="#a88ac4"/><stop offset="1" stop-color="#cdbce0" stop-opacity="0"/></linearGradient><linearGradient id="svg-2068065b-93a3-418e-b291-6fa2509c9f3b-g" x1="24.382" x2="24.382" y1="7.043" y2="29.198" gradientUnits="userSpaceOnUse"><stop stop-color="#9b98b3"/><stop offset="1" stop-color="#9c83ae"/></linearGradient><linearGradient id="svg-f3b6f5fd-c126-4878-afdc-ab76f10368b5-h" x1="16" x2="16" y1="4.367" y2="29.961" gradientUnits="userSpaceOnUse"><stop stop-color="#c2bec6"/><stop offset="1" stop-color="#baacc6"/></linearGradient><linearGradient id="svg-a8f936d6-4da8-4f59-a54c-665c5d275db8-i" x1="21.719" x2="21.719" y1="30.676" y2="27.195" gradientUnits="userSpaceOnUse"><stop stop-color="#9e83b7"/><stop offset="1" stop-color="#9e83b7" stop-opacity="0"/></linearGradient><linearGradient id="svg-85f0d554-163f-4a25-b8f0-9701b5b6fce1-j" x1="1.078" x2="6.391" y1="17.367" y2="17.367" gradientUnits="userSpaceOnUse"><stop stop-color="#96909c"/><stop offset="1" stop-color="#96909c" stop-opacity="0"/></linearGradient><linearGradient id="svg-b7bca425-fef5-47fc-a7f3-59e66333dc4b-k" x1="30.766" x2="26.953" y1="18.055" y2="18.055" gradientUnits="userSpaceOnUse"><stop stop-color="#d6d1da"/><stop offset="1" stop-color="#d6d1da" stop-opacity="0"/></linearGradient><linearGradient id="svg-6d4ad7cb-bb26-4c8f-ab14-402eae885a80-l" x1="24.187" x2="20.164" y1="18.334" y2="18.334" gradientUnits="userSpaceOnUse"><stop offset=".452" stop-color="#7c7695"/><stop offset="1" stop-color="#7c7695" stop-opacity="0"/></linearGradient><linearGradient id="svg-33da0ded-bf44-4120-8aa9-6dd41abd56b8-m" x1="21.029" x2="21.029" y1="30.534" y2="28.371" gradientUnits="userSpaceOnUse"><stop stop-color="#9070ad"/><stop offset="1" stop-color="#9070ad" stop-opacity="0"/></linearGradient><linearGradient id="svg-3d91bab8-3eaf-4bbd-bd2a-9db2acbf06d8-n" x1="19.645" x2="19.645" y1="1.549" y2="10.158" gradientUnits="userSpaceOnUse"><stop offset=".668" stop-color="#c3bfc7"/><stop offset="1" stop-color="#c3bfc7" stop-opacity="0"/></linearGradient><linearGradient id="svg-0dcf38ab-be41-4dbc-af2f-a1c313671116-p" x1="15.362" x2="15.362" y1="17.036" y2="29.625" gradientUnits="userSpaceOnUse"><stop stop-color="#9b98b3"/><stop offset="1" stop-color="#9c83ae"/></linearGradient><linearGradient id="svg-fc82055e-ba1f-496c-b2b5-2c65f27694f0-r" x1="6.234" x2="6.234" y1="9.428" y2="28.803" gradientUnits="userSpaceOnUse"><stop stop-color="#9b98b3"/><stop offset="1" stop-color="#9c83ae"/></linearGradient><linearGradient id="svg-0a143a73-5ab4-4e71-8aa1-436c36e6ab15-t" x1="25.02" x2="25.02" y1="5.594" y2="29.961" gradientUnits="userSpaceOnUse"><stop offset=".18" stop-color="#36a4f2"/><stop offset="1" stop-color="#3e79cb"/></linearGradient><linearGradient id="svg-22fe3177-c757-4b80-8354-d6afa63f23de-u" x1="21.722" x2="23.538" y1="29.452" y2="29.366" gradientUnits="userSpaceOnUse"><stop offset=".011" stop-color="#404e95"/><stop offset="1" stop-color="#2f66b3" stop-opacity="0"/></linearGradient><linearGradient id="svg-b4207d3e-cc0b-4bbc-812d-2b1b03d19185-w" x1="26.827" x2="26.827" y1="6.527" y2="29.028" gradientUnits="userSpaceOnUse"><stop stop-color="#53bfff"/><stop offset="1" stop-color="#508edc"/></linearGradient><linearGradient id="svg-77e20fb6-7748-4dde-a747-3eb4dc458df8-y" x1="1.519" x2="5.975" y1="17.469" y2="17.469" gradientUnits="userSpaceOnUse"><stop stop-color="#88858d"/><stop offset="1" stop-color="#88858d" stop-opacity="0"/></linearGradient><linearGradient id="svg-a811130b-fb4b-4ce0-84aa-eed5ddee11ea-A" x1="16" x2="16" y1="16.647" y2="29.961" gradientUnits="userSpaceOnUse"><stop offset=".18" stop-color="#e93586"/><stop offset="1" stop-color="#dd385f"/></linearGradient><linearGradient id="svg-0feec8f4-84d1-4fc6-9278-0fb9a99531f9-C" x1="17.806" x2="17.806" y1="17.555" y2="29.198" gradientUnits="userSpaceOnUse"><stop stop-color="#fa5598"/><stop offset="1" stop-color="#f34f70"/></linearGradient><linearGradient id="svg-5cd0860f-66e6-4748-8de1-5bd1bf3ea22f-E" x1="6.98" x2="6.98" y1="8.665" y2="29.961" gradientUnits="userSpaceOnUse"><stop offset=".18" stop-color="#abe263"/><stop offset="1" stop-color="#61e19b"/></linearGradient><linearGradient id="svg-bba39349-09cd-4318-b119-cc62fb5b4aa8-G" x1="9.111" x2="9.111" y1="9.428" y2="29.198" gradientUnits="userSpaceOnUse"><stop stop-color="#c9fe70"/><stop offset="1" stop-color="#6ceda7"/></linearGradient><filter id="svg-9489287b-c51c-430c-826a-e63296c2b06c-a" width="30.406" height="29.906" x="1.047" y="1.055" color-interpolation-filters="sRGB" filterUnits="userSpaceOnUse"><feFlood flood-opacity="0" result="BackgroundImageFix"/><feBlend in="SourceGraphic" in2="BackgroundImageFix" result="shape"/><feColorMatrix in="SourceAlpha" result="hardAlpha" values="0 0 0 0 0 0 0 0 0 0 0 0 0 0 0 0 0 0 127 0"/><feOffset dx="-1" dy="1"/><feGaussianBlur stdDeviation="1"/><feComposite in2="hardAlpha" k2="-1" k3="1" operator="arithmetic"/><feColorMatrix values="0 0 0 0 0.878431 0 0 0 0 0.87451 0 0 0 0 0.886275 0 0 0 1 0"/><feBlend in2="shape" result="effect1_innerShadow_18_23005"/><feColorMatrix in="SourceAlpha" result="hardAlpha" values="0 0 0 0 0 0 0 0 0 0 0 0 0 0 0 0 0 0 127 0"/><feOffset dx="1.5" dy="-1"/><feGaussianBlur stdDeviation="1.5"/><feComposite in2="hardAlpha" k2="-1" k3="1" operator="arithmetic"/><feColorMatrix values="0 0 0 0 0.698039 0 0 0 0 0.67451 0 0 0 0 0.721569 0 0 0 1 0"/><feBlend in2="effect1_innerShadow_18_23005" result="effect2_innerShadow_18_23005"/><feColorMatrix in="SourceAlpha" result="hardAlpha" values="0 0 0 0 0 0 0 0 0 0 0 0 0 0 0 0 0 0 127 0"/><feOffset dx=".25"/><feGaussianBlur stdDeviation=".25"/><feComposite in2="hardAlpha" k2="-1" k3="1" operator="arithmetic"/><feColorMatrix values="0 0 0 0 0.729412 0 0 0 0 0.729412 0 0 0 0 0.729412 0 0 0 1 0"/><feBlend in2="effect2_innerShadow_18_23005" result="effect3_innerShadow_18_23005"/></filter><filter id="svg-f4075c79-af13-4fb9-ac89-1ecba38250a4-f" width="7.754" height="24.155" x="20.505" y="6.043" color-interpolation-filters="sRGB" filterUnits="userSpaceOnUse"><feFlood flood-opacity="0" result="BackgroundImageFix"/><feBlend in="SourceGraphic" in2="BackgroundImageFix" result="shape"/><feGaussianBlur result="effect1_foregroundBlur_18_23005" stdDeviation=".5"/></filter><filter id="svg-f7dc8aac-dfc2-4652-8b22-29df2e2c898a-o" width="7.754" height="14.589" x="11.485" y="16.036" color-interpolation-filters="sRGB" filterUnits="userSpaceOnUse"><feFlood flood-opacity="0" result="BackgroundImageFix"/><feBlend in="SourceGraphic" in2="BackgroundImageFix" result="shape"/><feGaussianBlur result="effect1_foregroundBlur_18_23005" stdDeviation=".5"/></filter><filter id="svg-1557e5a6-8117-48a3-bbd2-5d3403cbb7fb-q" width="7.754" height="21.375" x="2.357" y="8.428" color-interpolation-filters="sRGB" filterUnits="userSpaceOnUse"><feFlood flood-opacity="0" result="BackgroundImageFix"/><feBlend in="SourceGraphic" in2="BackgroundImageFix" result="shape"/><feGaussianBlur result="effect1_foregroundBlur_18_23005" stdDeviation=".5"/></filter><filter id="svg-d7162002-1853-4298-b421-48f606796d8d-s" width="6.644" height="24.367" x="22.073" y="5.594" color-interpolation-filters="sRGB" filterUnits="userSpaceOnUse"><feFlood flood-opacity="0" result="BackgroundImageFix"/><feBlend in="SourceGraphic" in2="BackgroundImageFix" result="shape"/><feColorMatrix in="SourceAlpha" result="hardAlpha" values="0 0 0 0 0 0 0 0 0 0 0 0 0 0 0 0 0 0 127 0"/><feOffset dx=".75"/><feGaussianBlur stdDeviation=".5"/><feComposite in2="hardAlpha" k2="-1" k3="1" operator="arithmetic"/><feColorMatrix values="0 0 0 0 0.203922 0 0 0 0 0.482353 0 0 0 0 0.74902 0 0 0 1 0"/><feBlend in2="shape" result="effect1_innerShadow_18_23005"/></filter><filter id="svg-2eee102b-3794-4b92-928f-d14deea344e1-v" width="2.865" height="24.502" x="25.394" y="5.527" color-interpolation-filters="sRGB" filterUnits="userSpaceOnUse"><feFlood flood-opacity="0" result="BackgroundImageFix"/><feBlend in="SourceGraphic" in2="BackgroundImageFix" result="shape"/><feGaussianBlur result="effect1_foregroundBlur_18_23005" stdDeviation=".5"/></filter><filter id="svg-40acf65e-1892-4f42-b63c-12146c953cf8-z" width="6.644" height="13.314" x="13.053" y="16.647" color-interpolation-filters="sRGB" filterUnits="userSpaceOnUse"><feFlood flood-opacity="0" result="BackgroundImageFix"/><feBlend in="SourceGraphic" in2="BackgroundImageFix" result="shape"/><feColorMatrix in="SourceAlpha" result="hardAlpha" values="0 0 0 0 0 0 0 0 0 0 0 0 0 0 0 0 0 0 127 0"/><feOffset dx=".75"/><feGaussianBlur stdDeviation=".5"/><feComposite in2="hardAlpha" k2="-1" k3="1" operator="arithmetic"/><feColorMatrix values="0 0 0 0 0.67451 0 0 0 0 0.239216 0 0 0 0 0.372549 0 0 0 1 0"/><feBlend in2="shape" result="effect1_innerShadow_18_23005"/></filter><filter id="svg-fc74a0e1-89a3-49a8-bfd7-064c108ce510-B" width="2.865" height="13.643" x="16.374" y="16.555" color-interpolation-filters="sRGB" filterUnits="userSpaceOnUse"><feFlood flood-opacity="0" result="BackgroundImageFix"/><feBlend in="SourceGraphic" in2="BackgroundImageFix" result="shape"/><feGaussianBlur result="effect1_foregroundBlur_18_23005" stdDeviation=".5"/></filter><filter id="svg-8f9d8a8e-3436-41a6-9417-13e710c682f0-D" width="6.644" height="21.296" x="4.033" y="8.665" color-interpolation-filters="sRGB" filterUnits="userSpaceOnUse"><feFlood flood-opacity="0" result="BackgroundImageFix"/><feBlend in="SourceGraphic" in2="BackgroundImageFix" result="shape"/><feColorMatrix in="SourceAlpha" result="hardAlpha" values="0 0 0 0 0 0 0 0 0 0 0 0 0 0 0 0 0 0 127 0"/><feOffset dx=".75"/><feGaussianBlur stdDeviation=".5"/><feComposite in2="hardAlpha" k2="-1" k3="1" operator="arithmetic"/><feColorMatrix values="0 0 0 0 0.415686 0 0 0 0 0.792157 0 0 0 0 0.466667 0 0 0 1 0"/><feBlend in2="shape" result="effect1_innerShadow_18_23005"/></filter><filter id="svg-560bb4a2-7da5-4be9-a605-3d9083d2668b-F" width="2.865" height="21.77" x="7.678" y="8.428" color-interpolation-filters="sRGB" filterUnits="userSpaceOnUse"><feFlood flood-opacity="0" result="BackgroundImageFix"/><feBlend in="SourceGraphic" in2="BackgroundImageFix" result="shape"/><feGaussianBlur result="effect1_foregroundBlur_18_23005" stdDeviation=".5"/></filter><radialGradient id="svg-5c739f53-364d-4e74-9eaf-ae38c8d5f8f1-d" cx="0" cy="0" r="1" gradientTransform="rotate(177.86 14.823 8.481)scale(5.59248 21.8038)" gradientUnits="userSpaceOnUse"><stop stop-color="#f2edf5"/><stop offset="1" stop-color="#ded3e7" stop-opacity="0"/></radialGradient><radialGradient id="svg-cbb66a72-965b-4574-b28a-94be543dbfed-e" cx="0" cy="0" r="1" gradientTransform="rotate(138.434 14.244 7.062)scale(4.93201 5.10499)" gradientUnits="userSpaceOnUse"><stop stop-color="#f7f4f7"/><stop offset="1" stop-color="#e2dce5" stop-opacity="0"/></radialGradient><radialGradient id="svg-0484d3a0-66f6-422f-a293-f54d751c0a69-x" cx="0" cy="0" r="1" gradientTransform="matrix(-2.46588 0 0 -2.37936 14.324 20.93)" gradientUnits="userSpaceOnUse"><stop offset=".228" stop-color="#86738a"/><stop offset="1" stop-color="#86738a" stop-opacity="0"/></radialGradient></defs></svg>