<svg xmlns="http://www.w3.org/2000/svg" fill="none" viewBox="0 0 32 32"><g filter="url(#svg-dd941164-8b7d-4175-9d39-7e25ef4a9ca1-a)"><circle cx="14.039" cy="17.961" r="12.039" fill="url(#svg-b5f85047-b7c6-40de-8634-e08137aba083-b)"/><circle cx="14.039" cy="17.961" r="12.039" fill="url(#svg-1e2f7aa8-4569-4c9b-9830-8c6718dbcea7-c)"/></g><circle cx="14.039" cy="17.961" r="8.805" fill="url(#svg-ba84865a-9fc5-42cb-a30e-2cbb6b34ba8d-d)"/><circle cx="14.039" cy="17.961" r="8.805" fill="url(#svg-b4eabbfe-99f1-4058-bd8d-16b85abdaa43-e)"/><circle cx="14.039" cy="17.961" r="8.805" fill="url(#svg-59c06ef2-f400-4e90-9226-193e6a264997-f)"/><circle cx="14.039" cy="17.961" r="5.758" fill="url(#svg-16dad440-bda6-4a3e-986a-10d777f383a6-g)"/><circle cx="14.039" cy="17.961" r="5.758" fill="url(#svg-ac26c85d-197b-4f0c-85a0-175d49c29ce4-h)"/><circle cx="14.039" cy="17.961" r="2.859" fill="#b7abc8"/><circle cx="14.039" cy="17.961" r="2.859" fill="url(#svg-80c67cb5-1ee5-48e0-b270-6d88a37c8a57-i)"/><circle cx="14.039" cy="17.961" r="2.859" fill="url(#svg-645e4f67-2c4c-42c4-8c67-0a228826dac4-j)"/><g filter="url(#svg-f4e86054-bced-4834-b9fd-c3ed0144de65-k)"><path stroke="url(#svg-51d4376d-544d-440a-9b81-c329448392f1-l)" stroke-width=".65" d="M14.282 28.93c6.057 0 10.968-4.911 10.968-10.97 0-6.057-4.91-10.968-10.968-10.968S3.313 11.903 3.313 17.961s4.911 10.968 10.969 10.968Z"/></g><path fill="#7c7088" d="M14.134 17.875c-.338-.339-.463-.723-.125-1.062l1.715-1.723a.867.867 0 1 1 1.226 1.226l-1.715 1.723c-.338.339-.762.174-1.1-.164"/><path fill="url(#svg-043941fd-7a3b-4d46-9a87-ac347b0171b5-m)" d="M14.134 17.875c-.338-.339-.463-.723-.125-1.062l1.715-1.723a.867.867 0 1 1 1.226 1.226l-1.715 1.723c-.338.339-.762.174-1.1-.164"/><path fill="url(#svg-e24240e7-aa21-4df7-8c8c-bf273d0eb47d-n)" d="M14.134 17.875c-.338-.339-.463-.723-.125-1.062l1.715-1.723a.867.867 0 1 1 1.226 1.226l-1.715 1.723c-.338.339-.762.174-1.1-.164"/><path fill="#2983df" d="m22.664 2.772 1.227 3.244-4.484 3.14c-1.335-3.531.298-5.617 1.814-6.826.497-.396 1.218-.153 1.443.442"/><path fill="url(#svg-84d315b5-5390-433c-8f1d-07fb36a604b2-o)" d="m22.664 2.772 1.227 3.244-4.484 3.14c-1.335-3.531.298-5.617 1.814-6.826.497-.396 1.218-.153 1.443.442"/><path fill="url(#svg-5186665b-b7e6-4bc9-a768-64edaa67d38a-p)" d="m22.664 2.772 1.227 3.244-4.484 3.14c-1.335-3.531.298-5.617 1.814-6.826.497-.396 1.218-.153 1.443.442"/><path fill="#2980eb" d="m29.197 9.311-3.259-1.187-3.085 4.523c3.548 1.292 5.613-.367 6.803-1.897.39-.502.138-1.221-.46-1.439"/><path fill="url(#svg-c5816249-d45f-4210-a706-1eff1331eabc-q)" d="m29.197 9.311-3.259-1.187-3.085 4.523c3.548 1.292 5.613-.367 6.803-1.897.39-.502.138-1.221-.46-1.439"/><path fill="url(#svg-5f08b101-1a63-42d3-9e22-8cfa4a2fe4e2-r)" d="m29.197 9.311-3.259-1.187-3.085 4.523c3.548 1.292 5.613-.367 6.803-1.897.39-.502.138-1.221-.46-1.439"/><g filter="url(#svg-c164ed20-999a-4317-9bd5-0a489213008d-s)"><rect width=".946" height="5.258" x="21.323" y="2.624" fill="url(#svg-1762e21b-29b8-461e-ace9-26515ea0472e-t)" rx=".473" transform="rotate(-20.523 21.323 2.624)"/></g><g filter="url(#svg-417bab5e-9ac5-4f6e-93ad-40dd7aca7023-u)"><rect width=".946" height="5.258" x="29.642" y="9.72" fill="url(#svg-0c9a7d06-ec6a-4b77-80fd-e1d44759fe99-v)" rx=".473" transform="rotate(110.612 29.642 9.72)"/></g><g filter="url(#svg-66e1b9cd-068c-4dc9-b0bd-02baab52ba01-w)"><path fill="#52bcf0" d="m16.68 10.71 6.626-4.91c.88-.657 2.194-.486 2.857.197.737.791.824 1.956.192 2.816l-4.89 6.645a3.407 3.407 0 1 1-4.785-4.748"/></g><path fill="url(#svg-833e1dfd-d247-4812-912c-1f102951c0df-x)" d="m16.68 10.71 6.626-4.91c.88-.657 2.194-.486 2.857.197.737.791.824 1.956.192 2.816l-4.89 6.645a3.407 3.407 0 1 1-4.785-4.748"/><path fill="url(#svg-495ad60f-5aa2-4884-86b2-646807981d84-y)" d="m16.68 10.71 6.626-4.91c.88-.657 2.194-.486 2.857.197.737.791.824 1.956.192 2.816l-4.89 6.645a3.407 3.407 0 1 1-4.785-4.748"/><path fill="url(#svg-4ed7987a-583b-44ff-b333-2c697852e5e1-z)" d="m16.68 10.71 6.626-4.91c.88-.657 2.194-.486 2.857.197.737.791.824 1.956.192 2.816l-4.89 6.645a3.407 3.407 0 1 1-4.785-4.748"/><g filter="url(#svg-65e36e2e-f2c8-4960-8bb6-9f4b42783a2a-A)"><rect width="1.768" height="9.038" x="26.024" y="4.742" fill="#2984e4" rx=".884" transform="rotate(45 26.024 4.742)"/></g><rect width="1.768" height="9.038" x="26.024" y="4.742" fill="url(#svg-b88e89fb-8e70-4eb8-a2c1-48635b5d856d-B)" rx=".884" transform="rotate(45 26.024 4.742)"/><defs><radialGradient id="svg-1e2f7aa8-4569-4c9b-9830-8c6718dbcea7-c" cx="0" cy="0" r="1" gradientTransform="rotate(124.825 7.287 10.383)scale(5.33467 7.75809)" gradientUnits="userSpaceOnUse"><stop offset=".219" stop-color="#b82974"/><stop offset="1" stop-color="#b82974" stop-opacity="0"/></radialGradient><radialGradient id="svg-b4eabbfe-99f1-4058-bd8d-16b85abdaa43-e" cx="0" cy="0" r="1" gradientTransform="translate(11.214 17.96)scale(11.63)" gradientUnits="userSpaceOnUse"><stop offset=".861" stop-color="#cbc4df" stop-opacity="0"/><stop offset="1" stop-color="#cbc4df"/></radialGradient><radialGradient id="svg-59c06ef2-f400-4e90-9226-193e6a264997-f" cx="0" cy="0" r="1" gradientTransform="rotate(118.217 6.178 10.322)scale(5.90623 3.23274)" gradientUnits="userSpaceOnUse"><stop stop-color="#9da8b4"/><stop offset="1" stop-color="#9da8b4" stop-opacity="0"/></radialGradient><radialGradient id="svg-ac26c85d-197b-4f0c-85a0-175d49c29ce4-h" cx="0" cy="0" r="1" gradientTransform="rotate(131.253 5.263 10.981)scale(4.47426)" gradientUnits="userSpaceOnUse"><stop stop-color="#962359"/><stop offset=".947" stop-color="#962359" stop-opacity="0"/></radialGradient><radialGradient id="svg-80c67cb5-1ee5-48e0-b270-6d88a37c8a57-i" cx="0" cy="0" r="1" gradientTransform="rotate(67.204 -6.039 18.655)scale(4.75032)" gradientUnits="userSpaceOnUse"><stop offset=".613" stop-color="#c9bed9" stop-opacity="0"/><stop offset="1" stop-color="#c9bed9"/></radialGradient><radialGradient id="svg-645e4f67-2c4c-42c4-8c67-0a228826dac4-j" cx="0" cy="0" r="1" gradientTransform="rotate(103.843 1.754 13.56)scale(3.71373)" gradientUnits="userSpaceOnUse"><stop stop-color="#857d97"/><stop offset="1" stop-color="#857d97" stop-opacity="0"/></radialGradient><radialGradient id="svg-84d315b5-5390-433c-8f1d-07fb36a604b2-o" cx="0" cy="0" r="1" gradientTransform="rotate(202.722 11.408 .91)scale(2.71034 4.92096)" gradientUnits="userSpaceOnUse"><stop offset=".75" stop-color="#6897c2" stop-opacity="0"/><stop offset="1" stop-color="#6897c2"/></radialGradient><radialGradient id="svg-5f08b101-1a63-42d3-9e22-8cfa4a2fe4e2-r" cx="0" cy="0" r="1" gradientTransform="rotate(79.58 7.27 20.001)scale(4.14652 5.34146)" gradientUnits="userSpaceOnUse"><stop offset=".814" stop-color="#5066d2" stop-opacity="0"/><stop offset=".926" stop-color="#5066d2"/></radialGradient><radialGradient id="svg-1762e21b-29b8-461e-ace9-26515ea0472e-t" cx="0" cy="0" r="1" gradientTransform="rotate(86.925 9.358 12.989)scale(4.99592 1.05482)" gradientUnits="userSpaceOnUse"><stop stop-color="#61ceff"/><stop offset="1" stop-color="#3cb8ff" stop-opacity="0"/></radialGradient><radialGradient id="svg-0c9a7d06-ec6a-4b77-80fd-e1d44759fe99-v" cx="0" cy="0" r="1" gradientTransform="rotate(86.925 9.774 20.926)scale(4.99592 1.05482)" gradientUnits="userSpaceOnUse"><stop stop-color="#61ceff"/><stop offset="1" stop-color="#3cb8ff" stop-opacity="0"/></radialGradient><radialGradient id="svg-833e1dfd-d247-4812-912c-1f102951c0df-x" cx="0" cy="0" r="1" gradientTransform="rotate(143.326 12.605 7.438)scale(3.66252 3.77403)" gradientUnits="userSpaceOnUse"><stop offset=".423" stop-color="#6bffff"/><stop offset="1" stop-color="#6bffff" stop-opacity="0"/></radialGradient><radialGradient id="svg-495ad60f-5aa2-4884-86b2-646807981d84-y" cx="0" cy="0" r="1" gradientTransform="rotate(137.684 10.35 8.919)scale(10.8469 10.9883)" gradientUnits="userSpaceOnUse"><stop offset=".838" stop-color="#5e9bdb" stop-opacity="0"/><stop offset="1" stop-color="#5e9bdb"/></radialGradient><radialGradient id="svg-4ed7987a-583b-44ff-b333-2c697852e5e1-z" cx="0" cy="0" r="1" gradientTransform="rotate(134.318 8.106 9.959)scale(1.97052 1.03686)" gradientUnits="userSpaceOnUse"><stop offset=".361" stop-color="#49a0e1"/><stop offset="1" stop-color="#49a0e1" stop-opacity="0"/></radialGradient><radialGradient id="svg-b88e89fb-8e70-4eb8-a2c1-48635b5d856d-B" cx="0" cy="0" r="1" gradientTransform="rotate(-89.57 16.25 -10.704)scale(2.939 1.11952)" gradientUnits="userSpaceOnUse"><stop stop-color="#60caff"/><stop offset="1" stop-color="#60caff" stop-opacity="0"/></radialGradient><linearGradient id="svg-b5f85047-b7c6-40de-8634-e08137aba083-b" x1="19.534" x2="9.433" y1="7.121" y2="27.666" gradientUnits="userSpaceOnUse"><stop stop-color="#e6378b"/><stop offset="1" stop-color="#ef3a5c"/></linearGradient><linearGradient id="svg-ba84865a-9fc5-42cb-a30e-2cbb6b34ba8d-d" x1="20.353" x2="7.279" y1="22.389" y2="8.806" gradientUnits="userSpaceOnUse"><stop stop-color="#cec3df"/><stop offset="1" stop-color="#c5bcd3"/></linearGradient><linearGradient id="svg-16dad440-bda6-4a3e-986a-10d777f383a6-g" x1="17.878" x2="11.087" y1="14.074" y2="23.214" gradientUnits="userSpaceOnUse"><stop stop-color="#d2347a"/><stop offset="1" stop-color="#ed3963"/></linearGradient><linearGradient id="svg-51d4376d-544d-440a-9b81-c329448392f1-l" x1="23.42" x2="16.829" y1="10.783" y2="17.524" gradientUnits="userSpaceOnUse"><stop stop-color="#ff6aa2"/><stop offset="1" stop-color="#ff6aa2" stop-opacity="0"/></linearGradient><linearGradient id="svg-043941fd-7a3b-4d46-9a87-ac347b0171b5-m" x1="16.148" x2="15.507" y1="17.281" y2="16.622" gradientUnits="userSpaceOnUse"><stop stop-color="#7e5f8a"/><stop offset="1" stop-color="#7e5f8a" stop-opacity="0"/></linearGradient><linearGradient id="svg-e24240e7-aa21-4df7-8c8c-bf273d0eb47d-n" x1="14.901" x2="15.139" y1="15.823" y2="16.047" gradientUnits="userSpaceOnUse"><stop stop-color="#746d7c"/><stop offset="1" stop-color="#746d7c" stop-opacity="0"/></linearGradient><linearGradient id="svg-5186665b-b7e6-4bc9-a768-64edaa67d38a-p" x1="23.47" x2="21.876" y1="4.313" y2="4.875" gradientUnits="userSpaceOnUse"><stop stop-color="#58c3ff"/><stop offset="1" stop-color="#58c3ff" stop-opacity="0"/></linearGradient><linearGradient id="svg-c5816249-d45f-4210-a706-1eff1331eabc-q" x1="28.126" x2="27.532" y1="8.531" y2="9.812" gradientUnits="userSpaceOnUse"><stop stop-color="#49b6ff"/><stop offset="1" stop-color="#49b6ff" stop-opacity="0"/></linearGradient><filter id="svg-dd941164-8b7d-4175-9d39-7e25ef4a9ca1-a" width="24.578" height="25.078" x="2" y="5.422" color-interpolation-filters="sRGB" filterUnits="userSpaceOnUse"><feFlood flood-opacity="0" result="BackgroundImageFix"/><feBlend in="SourceGraphic" in2="BackgroundImageFix" result="shape"/><feColorMatrix in="SourceAlpha" result="hardAlpha" values="0 0 0 0 0 0 0 0 0 0 0 0 0 0 0 0 0 0 127 0"/><feOffset dx=".5" dy="-.5"/><feGaussianBlur stdDeviation=".5"/><feComposite in2="hardAlpha" k2="-1" k3="1" operator="arithmetic"/><feColorMatrix values="0 0 0 0 0.737255 0 0 0 0 0.160784 0 0 0 0 0.329412 0 0 0 1 0"/><feBlend in2="shape" result="effect1_innerShadow_18_3225"/><feColorMatrix in="SourceAlpha" result="hardAlpha" values="0 0 0 0 0 0 0 0 0 0 0 0 0 0 0 0 0 0 127 0"/><feOffset dx=".5" dy=".5"/><feGaussianBlur stdDeviation=".5"/><feComposite in2="hardAlpha" k2="-1" k3="1" operator="arithmetic"/><feColorMatrix values="0 0 0 0 0.74902 0 0 0 0 0.341176 0 0 0 0 0.490196 0 0 0 1 0"/><feBlend in2="effect1_innerShadow_18_3225" result="effect2_innerShadow_18_3225"/></filter><filter id="svg-f4e86054-bced-4834-b9fd-c3ed0144de65-k" width="23.887" height="23.887" x="2.338" y="6.017" color-interpolation-filters="sRGB" filterUnits="userSpaceOnUse"><feFlood flood-opacity="0" result="BackgroundImageFix"/><feBlend in="SourceGraphic" in2="BackgroundImageFix" result="shape"/><feGaussianBlur result="effect1_foregroundBlur_18_3225" stdDeviation=".325"/></filter><filter id="svg-c164ed20-999a-4317-9bd5-0a489213008d-s" width="3.458" height="5.984" x="20.958" y="1.928" color-interpolation-filters="sRGB" filterUnits="userSpaceOnUse"><feFlood flood-opacity="0" result="BackgroundImageFix"/><feBlend in="SourceGraphic" in2="BackgroundImageFix" result="shape"/><feGaussianBlur result="effect1_foregroundBlur_18_3225" stdDeviation=".25"/></filter><filter id="svg-417bab5e-9ac5-4f6e-93ad-40dd7aca7023-u" width="5.982" height="3.464" x="24.024" y="7.506" color-interpolation-filters="sRGB" filterUnits="userSpaceOnUse"><feFlood flood-opacity="0" result="BackgroundImageFix"/><feBlend in="SourceGraphic" in2="BackgroundImageFix" result="shape"/><feGaussianBlur result="effect1_foregroundBlur_18_3225" stdDeviation=".25"/></filter><filter id="svg-66e1b9cd-068c-4dc9-b0bd-02baab52ba01-w" width="11.715" height="11.71" x="15.313" y="5.387" color-interpolation-filters="sRGB" filterUnits="userSpaceOnUse"><feFlood flood-opacity="0" result="BackgroundImageFix"/><feBlend in="SourceGraphic" in2="BackgroundImageFix" result="shape"/><feColorMatrix in="SourceAlpha" result="hardAlpha" values="0 0 0 0 0 0 0 0 0 0 0 0 0 0 0 0 0 0 127 0"/><feOffset dx=".25" dy=".25"/><feGaussianBlur stdDeviation=".5"/><feComposite in2="hardAlpha" k2="-1" k3="1" operator="arithmetic"/><feColorMatrix values="0 0 0 0 0.45098 0 0 0 0 0.65098 0 0 0 0 0.737255 0 0 0 1 0"/><feBlend in2="shape" result="effect1_innerShadow_18_3225"/></filter><filter id="svg-65e36e2e-f2c8-4960-8bb6-9f4b42783a2a-A" width="7.208" height="7.208" x="19.85" y="4.958" color-interpolation-filters="sRGB" filterUnits="userSpaceOnUse"><feFlood flood-opacity="0" result="BackgroundImageFix"/><feBlend in="SourceGraphic" in2="BackgroundImageFix" result="shape"/><feColorMatrix in="SourceAlpha" result="hardAlpha" values="0 0 0 0 0 0 0 0 0 0 0 0 0 0 0 0 0 0 127 0"/><feOffset dx=".15" dy=".15"/><feGaussianBlur stdDeviation=".15"/><feComposite in2="hardAlpha" k2="-1" k3="1" operator="arithmetic"/><feColorMatrix values="0 0 0 0 0.160784 0 0 0 0 0.521569 0 0 0 0 0.764706 0 0 0 1 0"/><feBlend in2="shape" result="effect1_innerShadow_18_3225"/><feColorMatrix in="SourceAlpha" result="hardAlpha" values="0 0 0 0 0 0 0 0 0 0 0 0 0 0 0 0 0 0 127 0"/><feOffset dx="-.15" dy="-.15"/><feGaussianBlur stdDeviation=".225"/><feComposite in2="hardAlpha" k2="-1" k3="1" operator="arithmetic"/><feColorMatrix values="0 0 0 0 0.235294 0 0 0 0 0.435294 0 0 0 0 0.831373 0 0 0 1 0"/><feBlend in2="effect1_innerShadow_18_3225" result="effect2_innerShadow_18_3225"/></filter></defs></svg>