<svg xmlns="http://www.w3.org/2000/svg" fill="none" viewBox="0 0 32 32"><path fill="url(#svg-d7bbc9a8-fd79-4884-9a50-7a4dd06cabd1-a)" fill-rule="evenodd" d="M12.874 6.62c-.054.634-.82.952-1.307.54-.636-.54-1.311-1.067-1.813-1.348-1.362-.765-2.179-.915-3.497.37l-.035.036-.02.02-.016.016C4.902 7.572 5.05 8.388 5.816 9.75c.284.508.82 1.192 1.366 1.835.413.486.095 1.255-.541 1.307-.84.069-1.702.174-2.262.33-1.504.423-2.187.895-2.211 2.735v.102c.024 1.84.707 2.312 2.21 2.734.552.155 1.398.259 2.226.328.635.053.953.82.541 1.306-.532.63-1.051 1.296-1.33 1.791-.765 1.362-.913 2.179.371 3.497l.016.017.02.02.035.035c1.318 1.284 2.135 1.135 3.497.37.508-.285 1.194-.823 1.838-1.37.487-.412 1.255-.094 1.307.542.07.84.174 1.704.332 2.265.422 1.504.894 2.187 2.734 2.21h.101c1.84-.024 2.313-.706 2.735-2.21.153-.546.256-1.379.325-2.198.054-.635.82-.952 1.307-.54.636.539 1.311 1.066 1.813 1.348 1.362.765 2.178.914 3.497-.37l.035-.036.012-.012.008-.008.016-.016c1.284-1.318 1.136-2.135.37-3.497-.284-.507-.82-1.192-1.366-1.834-.413-.487-.095-1.255.541-1.307.84-.07 1.702-.174 2.262-.331 1.504-.422 2.187-.894 2.211-2.734v-.102c-.024-1.84-.707-2.312-2.21-2.734-.552-.155-1.398-.259-2.226-.328-.635-.053-.953-.82-.541-1.306.532-.63 1.051-1.296 1.33-1.792.765-1.362.913-2.178-.371-3.496l-.016-.017-.02-.02-.035-.035c-1.319-1.285-2.135-1.136-3.497-.37-.508.285-1.194.823-1.838 1.37-.487.412-1.255.094-1.308-.542-.069-.84-.173-1.705-.33-2.265-.422-1.504-.895-2.187-2.735-2.211h-.101c-1.84.024-2.313.707-2.735 2.21-.153.546-.256 1.38-.325 2.198m3.122 14.794a5.406 5.406 0 1 0 0-10.812 5.406 5.406 0 0 0 0 10.812" clip-rule="evenodd"/><g filter="url(#svg-09466fe0-bb5f-4b55-bf54-c025b697ef7b-b)"><path fill="url(#svg-bab54820-550c-4b0a-a3c2-3b4dc28d6384-c)" fill-rule="evenodd" d="M12.874 6.62c-.054.634-.82.952-1.307.54-.636-.54-1.311-1.067-1.813-1.348-1.362-.765-2.179-.915-3.497.37l-.035.036-.02.02-.016.016C4.902 7.572 5.05 8.388 5.816 9.75c.284.508.82 1.192 1.366 1.835.413.486.095 1.255-.541 1.307-.84.069-1.702.174-2.262.33-1.504.423-2.187.895-2.211 2.735v.102c.024 1.84.707 2.312 2.21 2.734.552.155 1.398.259 2.226.328.635.053.953.82.541 1.306-.532.63-1.051 1.296-1.33 1.791-.765 1.362-.913 2.179.371 3.497l.016.017.02.02.035.035c1.318 1.284 2.135 1.135 3.497.37.508-.285 1.194-.823 1.838-1.37.487-.412 1.255-.094 1.307.542.07.84.174 1.704.332 2.265.422 1.504.894 2.187 2.734 2.21h.101c1.84-.024 2.313-.706 2.735-2.21.153-.546.256-1.379.325-2.198.054-.635.82-.952 1.307-.54.636.539 1.311 1.066 1.813 1.348 1.362.765 2.178.914 3.497-.37l.035-.036.012-.012.008-.008.016-.016c1.284-1.318 1.136-2.135.37-3.497-.284-.507-.82-1.192-1.366-1.834-.413-.487-.095-1.255.541-1.307.84-.07 1.702-.174 2.262-.331 1.504-.422 2.187-.894 2.211-2.734v-.102c-.024-1.84-.707-2.312-2.21-2.734-.552-.155-1.398-.259-2.226-.328-.635-.053-.953-.82-.541-1.306.532-.63 1.051-1.296 1.33-1.792.765-1.362.913-2.178-.371-3.496l-.016-.017-.02-.02-.035-.035c-1.319-1.285-2.135-1.136-3.497-.37-.508.285-1.194.823-1.838 1.37-.487.412-1.255.094-1.308-.542-.069-.84-.173-1.705-.33-2.265-.422-1.504-.895-2.187-2.735-2.211h-.101c-1.84.024-2.313.707-2.735 2.21-.153.546-.256 1.38-.325 2.198m3.122 14.794a5.406 5.406 0 1 0 0-10.812 5.406 5.406 0 0 0 0 10.812" clip-rule="evenodd"/></g><g fill-rule="evenodd" clip-rule="evenodd" filter="url(#svg-6b1fddf0-9c1b-4659-998b-ac4b40be08a8-d)"><path fill="url(#svg-b49784e5-cb8f-4b24-a6d7-cd45dd6199e3-e)" d="M16 24.148a8.14 8.14 0 1 0 0-16.28 8.14 8.14 0 0 0 0 16.28m0-3.137a5.003 5.003 0 1 0 0-10.006 5.003 5.003 0 0 0 0 10.006"/><path fill="url(#svg-5f6e79ed-ab8e-4a24-a171-13a5cec2cb0d-f)" d="M16 24.148a8.14 8.14 0 1 0 0-16.28 8.14 8.14 0 0 0 0 16.28m0-3.137a5.003 5.003 0 1 0 0-10.006 5.003 5.003 0 0 0 0 10.006"/></g><g filter="url(#svg-8d9f9bee-f255-4229-97c6-b68e28ac8d28-g)"><path fill="url(#svg-110d1f59-d419-478b-b523-a6d44ca0cd58-h)" fill-rule="evenodd" d="M16 23.902a7.895 7.895 0 1 0 0-15.789 7.895 7.895 0 0 0 0 15.79m0-3.043a4.852 4.852 0 1 0 0-9.703 4.852 4.852 0 0 0 0 9.703" clip-rule="evenodd"/></g><g filter="url(#svg-5bc6c986-0355-400f-b49b-20ae557416ec-i)"><path fill="url(#svg-47bebdec-2cb4-41fe-afd6-32293f1a77c6-j)" fill-rule="evenodd" d="M16 21.516A5.508 5.508 0 1 0 16 10.5a5.508 5.508 0 0 0 0 11.016m4.852-5.508a4.852 4.852 0 1 1-9.704 0 4.852 4.852 0 0 1 9.704 0" clip-rule="evenodd"/></g><path fill="url(#svg-394ada70-d884-4b53-b64c-e23c8fe820f9-k)" fill-rule="evenodd" d="M16 21.477a5.469 5.469 0 1 0 0-10.938 5.469 5.469 0 0 0 0 10.938m0-1.141a4.328 4.328 0 1 0 0-8.656 4.328 4.328 0 0 0 0 8.656" clip-rule="evenodd"/><path fill="url(#svg-fd834026-9b3f-4b2d-8a65-2aec816e8140-l)" fill-rule="evenodd" d="M16 21.477a5.469 5.469 0 1 0 0-10.938 5.469 5.469 0 0 0 0 10.938m0-1.141a4.328 4.328 0 1 0 0-8.656 4.328 4.328 0 0 0 0 8.656" clip-rule="evenodd"/><path fill="url(#svg-f7da50c6-6a27-4bb9-a820-6cc3d7e63da1-m)" fill-rule="evenodd" d="M16 20.945a4.938 4.938 0 1 0 0-9.875 4.938 4.938 0 0 0 0 9.875m4.328-4.937a4.328 4.328 0 1 1-8.656 0 4.328 4.328 0 0 1 8.656 0" clip-rule="evenodd"/><path fill="url(#svg-86b42f78-d31e-4a03-88dd-bba50abf09de-n)" fill-rule="evenodd" d="M16 20.945a4.938 4.938 0 1 0 0-9.875 4.938 4.938 0 0 0 0 9.875m4.328-4.937a4.328 4.328 0 1 1-8.656 0 4.328 4.328 0 0 1 8.656 0" clip-rule="evenodd"/><path fill="url(#svg-2b10be1a-e7cf-4f55-8131-4e0b9dd6f7b0-o)" fill-rule="evenodd" d="M16 20.945a4.938 4.938 0 1 0 0-9.875 4.938 4.938 0 0 0 0 9.875m4.328-4.937a4.328 4.328 0 1 1-8.656 0 4.328 4.328 0 0 1 8.656 0" clip-rule="evenodd"/><g filter="url(#svg-c87020fa-5aa4-4c4d-b697-059519d07b7e-p)"><path stroke="url(#svg-5a4e0de4-0a51-4301-af35-2be6b59500cf-q)" stroke-width=".1" d="M16 20.945a4.938 4.938 0 1 0 0-9.875 4.938 4.938 0 0 0 0 9.875Z" clip-rule="evenodd"/></g><defs><radialGradient id="svg-5f6e79ed-ab8e-4a24-a171-13a5cec2cb0d-f" cx="0" cy="0" r="1" gradientTransform="rotate(26.764 -19.776 25.385)scale(4.02495 11.1436)" gradientUnits="userSpaceOnUse"><stop stop-color="#908b9a"/><stop offset="1" stop-color="#908b9a" stop-opacity="0"/></radialGradient><radialGradient id="svg-110d1f59-d419-478b-b523-a6d44ca0cd58-h" cx="0" cy="0" r="1" gradientTransform="rotate(133.81 8.106 10.049)scale(14.8967 19.4343)" gradientUnits="userSpaceOnUse"><stop offset=".033" stop-color="#e5dff0"/><stop offset="1" stop-color="#9b8bae"/></radialGradient><radialGradient id="svg-394ada70-d884-4b53-b64c-e23c8fe820f9-k" cx="0" cy="0" r="1" gradientTransform="rotate(128.71 7.15 11.297)scale(11.1432)" gradientUnits="userSpaceOnUse"><stop stop-color="#e6e0f1"/><stop offset="1" stop-color="#a89aba"/></radialGradient><radialGradient id="svg-fd834026-9b3f-4b2d-8a65-2aec816e8140-l" cx="0" cy="0" r="1" gradientTransform="rotate(32.574 -16.6 25.63)scale(5.34 10.7649)" gradientUnits="userSpaceOnUse"><stop stop-color="#90899a"/><stop offset="1" stop-color="#90899a" stop-opacity="0"/></radialGradient><radialGradient id="svg-f7da50c6-6a27-4bb9-a820-6cc3d7e63da1-m" cx="0" cy="0" r="1" gradientTransform="rotate(136.338 7.205 10.393)scale(9.46013 9.40439)" gradientUnits="userSpaceOnUse"><stop offset=".246" stop-color="#c9bfd7"/><stop offset="1" stop-color="#ada4bb"/></radialGradient><radialGradient id="svg-86b42f78-d31e-4a03-88dd-bba50abf09de-n" cx="0" cy="0" r="1" gradientTransform="matrix(3.4375 -3.5 5.56387 5.46451 12.063 19.688)" gradientUnits="userSpaceOnUse"><stop offset=".343" stop-color="#bcb6c4"/><stop offset="1" stop-color="#bcb6c4" stop-opacity="0"/></radialGradient><radialGradient id="svg-2b10be1a-e7cf-4f55-8131-4e0b9dd6f7b0-o" cx="0" cy="0" r="1" gradientTransform="rotate(49.259 -6.322 19.767)scale(4.16575 7.39539)" gradientUnits="userSpaceOnUse"><stop offset=".194" stop-color="#a294b3"/><stop offset="1" stop-color="#a294b3" stop-opacity="0"/></radialGradient><radialGradient id="svg-5a4e0de4-0a51-4301-af35-2be6b59500cf-q" cx="0" cy="0" r="1" gradientTransform="rotate(152.789 8.673 10.312)scale(6.85944 6.79772)" gradientUnits="userSpaceOnUse"><stop offset=".588" stop-color="#ccc3da"/><stop offset="1" stop-color="#a197af"/></radialGradient><filter id="svg-09466fe0-bb5f-4b55-bf54-c025b697ef7b-b" width="28.064" height="27.994" x="1.968" y="2.011" color-interpolation-filters="sRGB" filterUnits="userSpaceOnUse"><feFlood flood-opacity="0" result="BackgroundImageFix"/><feBlend in="SourceGraphic" in2="BackgroundImageFix" result="shape"/><feColorMatrix in="SourceAlpha" result="hardAlpha" values="0 0 0 0 0 0 0 0 0 0 0 0 0 0 0 0 0 0 127 0"/><feOffset dx=".2" dy="-.2"/><feGaussianBlur stdDeviation=".2"/><feComposite in2="hardAlpha" k2="-1" k3="1" operator="arithmetic"/><feColorMatrix values="0 0 0 0 0.615686 0 0 0 0 0.533333 0 0 0 0 0.717647 0 0 0 1 0"/><feBlend in2="shape" result="effect1_innerShadow_18_24453"/><feColorMatrix in="SourceAlpha" result="hardAlpha" values="0 0 0 0 0 0 0 0 0 0 0 0 0 0 0 0 0 0 127 0"/><feOffset dx="-.2" dy=".2"/><feGaussianBlur stdDeviation=".2"/><feComposite in2="hardAlpha" k2="-1" k3="1" operator="arithmetic"/><feColorMatrix values="0 0 0 0 0.941176 0 0 0 0 0.941176 0 0 0 0 0.960784 0 0 0 1 0"/><feBlend in2="effect1_innerShadow_18_24453" result="effect2_innerShadow_18_24453"/><feColorMatrix in="SourceAlpha" result="hardAlpha" values="0 0 0 0 0 0 0 0 0 0 0 0 0 0 0 0 0 0 127 0"/><feOffset dx=".2" dy=".1"/><feGaussianBlur stdDeviation=".2"/><feComposite in2="hardAlpha" k2="-1" k3="1" operator="arithmetic"/><feColorMatrix values="0 0 0 0 0.607843 0 0 0 0 0.6 0 0 0 0 0.631373 0 0 0 1 0"/><feBlend in2="effect2_innerShadow_18_24453" result="effect3_innerShadow_18_24453"/></filter><filter id="svg-6b1fddf0-9c1b-4659-998b-ac4b40be08a8-d" width="17.281" height="17.281" x="7.359" y="7.367" color-interpolation-filters="sRGB" filterUnits="userSpaceOnUse"><feFlood flood-opacity="0" result="BackgroundImageFix"/><feBlend in="SourceGraphic" in2="BackgroundImageFix" result="shape"/><feGaussianBlur result="effect1_foregroundBlur_18_24453" stdDeviation=".25"/></filter><filter id="svg-8d9f9bee-f255-4229-97c6-b68e28ac8d28-g" width="16.039" height="16.039" x="8.105" y="7.863" color-interpolation-filters="sRGB" filterUnits="userSpaceOnUse"><feFlood flood-opacity="0" result="BackgroundImageFix"/><feBlend in="SourceGraphic" in2="BackgroundImageFix" result="shape"/><feColorMatrix in="SourceAlpha" result="hardAlpha" values="0 0 0 0 0 0 0 0 0 0 0 0 0 0 0 0 0 0 127 0"/><feOffset dx=".25" dy="-.25"/><feGaussianBlur stdDeviation=".25"/><feComposite in2="hardAlpha" k2="-1" k3="1" operator="arithmetic"/><feColorMatrix values="0 0 0 0 0.596078 0 0 0 0 0.521569 0 0 0 0 0.682353 0 0 0 1 0"/><feBlend in2="shape" result="effect1_innerShadow_18_24453"/></filter><filter id="svg-5bc6c986-0355-400f-b49b-20ae557416ec-i" width="11.216" height="11.216" x="10.392" y="10.4" color-interpolation-filters="sRGB" filterUnits="userSpaceOnUse"><feFlood flood-opacity="0" result="BackgroundImageFix"/><feBlend in="SourceGraphic" in2="BackgroundImageFix" result="shape"/><feGaussianBlur result="effect1_foregroundBlur_18_24453" stdDeviation=".05"/></filter><filter id="svg-c87020fa-5aa4-4c4d-b697-059519d07b7e-p" width="10.175" height="10.175" x="10.912" y="10.92" color-interpolation-filters="sRGB" filterUnits="userSpaceOnUse"><feFlood flood-opacity="0" result="BackgroundImageFix"/><feBlend in="SourceGraphic" in2="BackgroundImageFix" result="shape"/><feGaussianBlur result="effect1_foregroundBlur_18_24453" stdDeviation=".05"/></filter><linearGradient id="svg-d7bbc9a8-fd79-4884-9a50-7a4dd06cabd1-a" x1="25.813" x2="6.125" y1="6.063" y2="25.688" gradientUnits="userSpaceOnUse"><stop stop-color="#ded7eb"/><stop offset="1" stop-color="#c1b4d6"/></linearGradient><linearGradient id="svg-bab54820-550c-4b0a-a3c2-3b4dc28d6384-c" x1="25.813" x2="6.125" y1="6.063" y2="25.688" gradientUnits="userSpaceOnUse"><stop stop-color="#ded7eb"/><stop offset="1" stop-color="#c1b4d6"/></linearGradient><linearGradient id="svg-b49784e5-cb8f-4b24-a6d7-cd45dd6199e3-e" x1="21" x2="13.594" y1="9.445" y2="23.938" gradientUnits="userSpaceOnUse"><stop stop-color="#d0ccd9"/><stop offset=".837" stop-color="#a38ebe"/></linearGradient><linearGradient id="svg-47bebdec-2cb4-41fe-afd6-32293f1a77c6-j" x1="18.906" x2="16" y1="11" y2="21.516" gradientUnits="userSpaceOnUse"><stop stop-color="#aea9b7"/><stop offset="1" stop-color="#9888ac"/></linearGradient></defs></svg>