<svg xmlns="http://www.w3.org/2000/svg" fill="none" viewBox="0 0 32 32"><g filter="url(#svg-6a3b6b6f-509d-45da-913b-2509cf7e08fa-a)"><path fill="url(#svg-f34a5884-da57-4b4c-8969-675b7a78e0b9-b)" d="M20.415 2.336a1 1 0 0 0-.707-.293H6.439a1.4 1.4 0 0 0-1.4 1.4v25.114a1.4 1.4 0 0 0 1.4 1.4h19.122a1.4 1.4 0 0 0 1.4-1.4V9.297a1 1 0 0 0-.293-.708z"/></g><g filter="url(#svg-044cc5e0-1702-436c-b3e3-1e15096eae4e-c)"><path fill="#d2c5df" d="M19.751 2.457c0-.201.058-.33-.052-.352.104.007.256.045.352.083.123.048-.03.155.067.249l.009.008 6.253 6.253a1 1 0 0 1 .293.708v.063c0-.232-.168-.371-.293-.371h-5.429a1.2 1.2 0 0 1-1.2-1.2z"/></g><g filter="url(#svg-9413dcc6-eb84-456e-a744-11a35b081d1b-d)"><path fill="url(#svg-e245c323-49c0-4898-b08c-27a3bc927915-e)" d="M20.04 2.348c0-.202-.159-.282-.269-.303a1 1 0 0 1 .644.29l6.253 6.254a1 1 0 0 1 .244.4 1 1 0 0 1 .049.307v.063c0-.232-.168-.37-.293-.37h-5.429a1.2 1.2 0 0 1-1.2-1.2z"/></g><path fill="url(#svg-54132035-a356-4c37-b79a-436011d8e103-f)" d="M20.04 2.348c0-.202-.159-.282-.269-.303a1 1 0 0 1 .644.29l6.253 6.254a1 1 0 0 1 .244.4 1 1 0 0 1 .049.307v.063c0-.232-.168-.37-.293-.37h-5.429a1.2 1.2 0 0 1-1.2-1.2z"/><rect width="13.914" height=".992" x="9.039" y="11.996" fill="url(#svg-ddfa4f0b-ce03-49ee-bd06-caf9113c65c1-g)" rx=".496"/><rect width="13.914" height=".992" x="9.039" y="14.996" fill="url(#svg-cb640ec0-47b0-424d-bd8c-485c196d5cfb-h)" rx=".496"/><rect width="13.914" height=".992" x="9.039" y="17.996" fill="url(#svg-a03e2c32-ce03-45c5-9722-314c0ce10180-i)" rx=".496"/><rect width="8.984" height=".992" x="9.039" y="20.996" fill="url(#svg-a2453116-73d9-44b2-a966-d6e7d162ade6-j)" rx=".496"/><path fill="url(#svg-1c99ec43-b550-4a06-b542-a97fc68987d0-k)" d="M25.073 13.499a1.5 1.5 0 0 1 2.111.208l1.95 2.378a1.5 1.5 0 0 1-.207 2.11L14.789 29.795l-3.854-4.698z"/><path fill="url(#svg-0f9b642e-6696-4e44-b84e-1b5b762dc4df-l)" d="M25.073 13.499a1.5 1.5 0 0 1 2.111.208l1.95 2.378a1.5 1.5 0 0 1-.207 2.11L14.789 29.795l-3.854-4.698z"/><path fill="url(#svg-aae1d129-4f21-42f1-a863-5e8063b09374-m)" d="M25.073 13.499a1.5 1.5 0 0 1 2.111.208l1.95 2.378a1.5 1.5 0 0 1-.207 2.11L14.789 29.795l-3.854-4.698z"/><path fill="url(#svg-56f36173-e5f4-44c7-8657-025109ea4fde-n)" d="M25.073 13.499a1.5 1.5 0 0 1 2.111.208l1.95 2.378a1.5 1.5 0 0 1-.207 2.11L14.789 29.795l-3.854-4.698z"/><path fill="url(#svg-46cd2f2e-ce4d-4aed-badc-c80821f630a4-o)" d="M9.843 29.795a.133.133 0 0 0 .13.157l4.353.011a.66.66 0 0 0 .354-.101l.109-.068-3.854-4.698-.074.074a.66.66 0 0 0-.183.343z"/><path fill="url(#svg-453e7dcc-fee9-4ae6-bb45-ebe43c33f693-p)" d="M9.843 29.795a.133.133 0 0 0 .13.157l4.353.011a.66.66 0 0 0 .354-.101l.109-.068-3.854-4.698-.074.074a.66.66 0 0 0-.183.343z"/><path fill="url(#svg-76b19188-e122-4e53-acdb-659e93c6913c-q)" d="M9.843 29.795a.133.133 0 0 0 .13.157l4.353.011a.66.66 0 0 0 .354-.101l.109-.068-3.854-4.698-.074.074a.66.66 0 0 0-.183.343z"/><path fill="url(#svg-9e3fd907-6ffa-4475-836c-070eca8053a4-r)" d="m27.013 19.765 2.305-1.89a.994.994 0 0 0 .138-1.4l-2.593-3.16a.994.994 0 0 0-1.398-.138l-2.305 1.891z"/><path fill="url(#svg-fde4019d-4785-4218-b1f3-1384e6b52175-s)" d="m27.013 19.765 2.305-1.89a.994.994 0 0 0 .138-1.4l-2.593-3.16a.994.994 0 0 0-1.398-.138l-2.305 1.891z"/><path fill="url(#svg-187f8f5c-eb7b-4a8d-9c3c-6979af81f229-t)" d="m27.013 19.765 2.305-1.89a.994.994 0 0 0 .138-1.4l-2.593-3.16a.994.994 0 0 0-1.398-.138l-2.305 1.891z"/><path fill="url(#svg-c075894b-6a82-4952-adf5-03a1e8d49f92-u)" d="m20.85 16.963 2.31-1.895 3.853 4.697-2.31 1.895z"/><path fill="url(#svg-375f28df-c927-402e-b02f-d5167ced8f12-v)" d="m20.85 16.963 2.31-1.895 3.853 4.697-2.31 1.895z"/><path fill="url(#svg-005c2874-1df8-45cc-aa1a-86d677f01b82-w)" d="M9.972 29.952a.133.133 0 0 1-.13-.158l.294-1.501 1.364 1.663z"/><defs><linearGradient id="svg-f34a5884-da57-4b4c-8969-675b7a78e0b9-b" x1="16" x2="16" y1="2.043" y2="30.883" gradientUnits="userSpaceOnUse"><stop stop-color="#e4dcea"/><stop offset="1" stop-color="#cec1d5"/></linearGradient><linearGradient id="svg-e245c323-49c0-4898-b08c-27a3bc927915-e" x1="20.539" x2="23.18" y1="8.707" y2="6.066" gradientUnits="userSpaceOnUse"><stop stop-color="#cac2ce"/><stop offset="1" stop-color="#bdb4c1"/></linearGradient><linearGradient id="svg-54132035-a356-4c37-b79a-436011d8e103-f" x1="23.773" x2="22.516" y1="5.551" y2="6.82" gradientUnits="userSpaceOnUse"><stop offset=".119" stop-color="#dbdadc"/><stop offset=".577" stop-color="#cbc7d0" stop-opacity="0"/></linearGradient><linearGradient id="svg-ddfa4f0b-ce03-49ee-bd06-caf9113c65c1-g" x1="9.039" x2="22.953" y1="12.492" y2="12.492" gradientUnits="userSpaceOnUse"><stop stop-color="#9c96a2"/><stop offset="1" stop-color="#9a95a1"/></linearGradient><linearGradient id="svg-cb640ec0-47b0-424d-bd8c-485c196d5cfb-h" x1="9.039" x2="22.953" y1="15.492" y2="15.492" gradientUnits="userSpaceOnUse"><stop stop-color="#9c96a2"/><stop offset="1" stop-color="#9a95a1"/></linearGradient><linearGradient id="svg-a03e2c32-ce03-45c5-9722-314c0ce10180-i" x1="9.039" x2="22.953" y1="18.492" y2="18.492" gradientUnits="userSpaceOnUse"><stop stop-color="#9c96a2"/><stop offset="1" stop-color="#9a95a1"/></linearGradient><linearGradient id="svg-a2453116-73d9-44b2-a966-d6e7d162ade6-j" x1="9.039" x2="18.023" y1="21.492" y2="21.492" gradientUnits="userSpaceOnUse"><stop stop-color="#9c96a2"/><stop offset="1" stop-color="#9a95a1"/></linearGradient><linearGradient id="svg-0f9b642e-6696-4e44-b84e-1b5b762dc4df-l" x1="16.154" x2="17.087" y1="20.493" y2="21.584" gradientUnits="userSpaceOnUse"><stop stop-color="#ee9b6a"/><stop offset="1" stop-color="#ee9b6a" stop-opacity="0"/></linearGradient><linearGradient id="svg-aae1d129-4f21-42f1-a863-5e8063b09374-m" x1="22.841" x2="21.707" y1="23.566" y2="22.414" gradientUnits="userSpaceOnUse"><stop stop-color="#e66a62"/><stop offset="1" stop-color="#e66a62" stop-opacity="0"/></linearGradient><linearGradient id="svg-46cd2f2e-ce4d-4aed-badc-c80821f630a4-o" x1="11.304" x2="12.766" y1="27.483" y2="30.373" gradientUnits="userSpaceOnUse"><stop stop-color="#d8a587"/><stop offset="1" stop-color="#ce7a98"/></linearGradient><linearGradient id="svg-453e7dcc-fee9-4ae6-bb45-ebe43c33f693-p" x1="13.331" x2="12.952" y1="27.809" y2="28.124" gradientUnits="userSpaceOnUse"><stop offset=".207" stop-color="#ffc09f"/><stop offset="1" stop-color="#fcb196" stop-opacity="0"/></linearGradient><linearGradient id="svg-76b19188-e122-4e53-acdb-659e93c6913c-q" x1="9.748" x2="11.137" y1="27.226" y2="27.487" gradientUnits="userSpaceOnUse"><stop stop-color="#debca3"/><stop offset="1" stop-color="#debca3" stop-opacity="0"/></linearGradient><linearGradient id="svg-9e3fd907-6ffa-4475-836c-070eca8053a4-r" x1="28.628" x2="25.643" y1="15.108" y2="17.518" gradientUnits="userSpaceOnUse"><stop stop-color="#ff6153"/><stop offset="1" stop-color="#ff6154"/></linearGradient><linearGradient id="svg-fde4019d-4785-4218-b1f3-1384e6b52175-s" x1="23.831" x2="25.778" y1="14.385" y2="16.575" gradientUnits="userSpaceOnUse"><stop stop-color="#f1553e"/><stop offset="1" stop-color="#f1553e" stop-opacity="0"/></linearGradient><linearGradient id="svg-c075894b-6a82-4952-adf5-03a1e8d49f92-u" x1="22.041" x2="24.516" y1="16.081" y2="18.822" gradientUnits="userSpaceOnUse"><stop stop-color="#c5c4cb"/><stop offset="1" stop-color="#e8defa"/></linearGradient><linearGradient id="svg-375f28df-c927-402e-b02f-d5167ced8f12-v" x1="25.871" x2="24.492" y1="21.119" y2="19.485" gradientUnits="userSpaceOnUse"><stop stop-color="#c9b9e0"/><stop offset="1" stop-color="#c9b9e0" stop-opacity="0"/></linearGradient><linearGradient id="svg-005c2874-1df8-45cc-aa1a-86d677f01b82-w" x1="10.053" x2="10.657" y1="28.982" y2="30.021" gradientUnits="userSpaceOnUse"><stop stop-color="#461e49"/><stop offset="1" stop-color="#450f51"/></linearGradient><radialGradient id="svg-1c99ec43-b550-4a06-b542-a97fc68987d0-k" cx="0" cy="0" r="1" gradientTransform="rotate(-40.007 44.286 -3.842)scale(13.0302 8.0826)" gradientUnits="userSpaceOnUse"><stop stop-color="#ff9130"/><stop offset="1" stop-color="#f3633d"/></radialGradient><radialGradient id="svg-56f36173-e5f4-44c7-8657-025109ea4fde-n" cx="0" cy="0" r="1" gradientTransform="rotate(-39.224 44.834 -4.08)scale(12.0339 2.691)" gradientUnits="userSpaceOnUse"><stop stop-color="#ff994d"/><stop offset="1" stop-color="#ff994d" stop-opacity="0"/></radialGradient><radialGradient id="svg-187f8f5c-eb7b-4a8d-9c3c-6979af81f229-t" cx="0" cy="0" r="1" gradientTransform="rotate(140.636 11.202 12.845)scale(.90766 2.06194)" gradientUnits="userSpaceOnUse"><stop offset=".177" stop-color="#ff786d"/><stop offset="1" stop-color="#ff786d" stop-opacity="0"/></radialGradient><filter id="svg-6a3b6b6f-509d-45da-913b-2509cf7e08fa-a" width="22.322" height="28.314" x="4.939" y="1.743" color-interpolation-filters="sRGB" filterUnits="userSpaceOnUse"><feFlood flood-opacity="0" result="BackgroundImageFix"/><feBlend in="SourceGraphic" in2="BackgroundImageFix" result="shape"/><feColorMatrix in="SourceAlpha" result="hardAlpha" values="0 0 0 0 0 0 0 0 0 0 0 0 0 0 0 0 0 0 127 0"/><feOffset dx=".3" dy="-.3"/><feGaussianBlur stdDeviation=".3"/><feComposite in2="hardAlpha" k2="-1" k3="1" operator="arithmetic"/><feColorMatrix values="0 0 0 0 0.807843 0 0 0 0 0.768627 0 0 0 0 0.85098 0 0 0 1 0"/><feBlend in2="shape" result="effect1_innerShadow_18_22438"/><feColorMatrix in="SourceAlpha" result="hardAlpha" values="0 0 0 0 0 0 0 0 0 0 0 0 0 0 0 0 0 0 127 0"/><feOffset dx=".1" dy="-.1"/><feGaussianBlur stdDeviation=".1"/><feComposite in2="hardAlpha" k2="-1" k3="1" operator="arithmetic"/><feColorMatrix values="0 0 0 0 0.709804 0 0 0 0 0.690196 0 0 0 0 0.733333 0 0 0 1 0"/><feBlend in2="effect1_innerShadow_18_22438" result="effect2_innerShadow_18_22438"/><feColorMatrix in="SourceAlpha" result="hardAlpha" values="0 0 0 0 0 0 0 0 0 0 0 0 0 0 0 0 0 0 127 0"/><feOffset dy="-.1"/><feGaussianBlur stdDeviation=".1"/><feComposite in2="hardAlpha" k2="-1" k3="1" operator="arithmetic"/><feColorMatrix values="0 0 0 0 0.72549 0 0 0 0 0.65098 0 0 0 0 0.8 0 0 0 1 0"/><feBlend in2="effect2_innerShadow_18_22438" result="effect3_innerShadow_18_22438"/><feColorMatrix in="SourceAlpha" result="hardAlpha" values="0 0 0 0 0 0 0 0 0 0 0 0 0 0 0 0 0 0 127 0"/><feOffset dx="-.15" dy=".15"/><feGaussianBlur stdDeviation=".05"/><feComposite in2="hardAlpha" k2="-1" k3="1" operator="arithmetic"/><feColorMatrix values="0 0 0 0 0.952941 0 0 0 0 0.941176 0 0 0 0 0.964706 0 0 0 1 0"/><feBlend in2="effect3_innerShadow_18_22438" result="effect4_innerShadow_18_22438"/></filter><filter id="svg-044cc5e0-1702-436c-b3e3-1e15096eae4e-c" width="7.974" height="8.363" x="19.199" y="1.605" color-interpolation-filters="sRGB" filterUnits="userSpaceOnUse"><feFlood flood-opacity="0" result="BackgroundImageFix"/><feBlend in="SourceGraphic" in2="BackgroundImageFix" result="shape"/><feGaussianBlur result="effect1_foregroundBlur_18_22438" stdDeviation=".25"/></filter><filter id="svg-9413dcc6-eb84-456e-a744-11a35b081d1b-d" width="7.29" height="7.414" x="19.771" y="1.945" color-interpolation-filters="sRGB" filterUnits="userSpaceOnUse"><feFlood flood-opacity="0" result="BackgroundImageFix"/><feBlend in="SourceGraphic" in2="BackgroundImageFix" result="shape"/><feColorMatrix in="SourceAlpha" result="hardAlpha" values="0 0 0 0 0 0 0 0 0 0 0 0 0 0 0 0 0 0 127 0"/><feOffset dx=".1"/><feGaussianBlur stdDeviation=".075"/><feComposite in2="hardAlpha" k2="-1" k3="1" operator="arithmetic"/><feColorMatrix values="0 0 0 0 0.631373 0 0 0 0 0.611765 0 0 0 0 0.654902 0 0 0 1 0"/><feBlend in2="shape" result="effect1_innerShadow_18_22438"/><feColorMatrix in="SourceAlpha" result="hardAlpha" values="0 0 0 0 0 0 0 0 0 0 0 0 0 0 0 0 0 0 127 0"/><feOffset dy="-.1"/><feGaussianBlur stdDeviation=".075"/><feComposite in2="hardAlpha" k2="-1" k3="1" operator="arithmetic"/><feColorMatrix values="0 0 0 0 0.752941 0 0 0 0 0.67451 0 0 0 0 0.835294 0 0 0 1 0"/><feBlend in2="effect1_innerShadow_18_22438" result="effect2_innerShadow_18_22438"/></filter></defs></svg>