<svg xmlns="http://www.w3.org/2000/svg" fill="none" viewBox="0 0 32 32"><g clip-path="url(#svg-17e806ff-dd25-4a3f-8e7e-7e88a6d75d30-a)"><path fill="url(#svg-281b6d76-1e02-4f6e-9b2c-4959fd7c6337-b)" d="M10.582 13.718c1.2-.442 2.367.725 1.925 1.926L9.89 22.758a1 1 0 0 1-1.646.362l-5.138-5.138a1 1 0 0 1 .362-1.645z"/><path fill="url(#svg-22bdf305-e7e5-4acb-95c7-1fb44ff5ee4d-c)" d="M10.582 13.718c1.2-.442 2.367.725 1.925 1.926L9.89 22.758a1 1 0 0 1-1.646.362l-5.138-5.138a1 1 0 0 1 .362-1.645z"/><path fill="url(#svg-62db1809-99c6-4f1a-bea7-d178918f3d24-d)" d="M10.582 13.718c1.2-.442 2.367.725 1.925 1.926L9.89 22.758a1 1 0 0 1-1.646.362l-5.138-5.138a1 1 0 0 1 .362-1.645z"/><path fill="url(#svg-a5a89375-eae7-4fd8-a85e-9355f04071a5-e)" d="M16.582 19.718c1.2-.442 2.367.725 1.925 1.926l-2.619 7.114a1 1 0 0 1-1.645.362l-5.138-5.138a1 1 0 0 1 .362-1.645z"/><path fill="url(#svg-dc20a168-14cb-4093-b846-c198fcac051e-f)" d="M16.582 19.718c1.2-.442 2.367.725 1.925 1.926l-2.619 7.114a1 1 0 0 1-1.645.362l-5.138-5.138a1 1 0 0 1 .362-1.645z"/><path fill="url(#svg-0adf72aa-e358-4b68-beb1-d161c46078a2-g)" d="M16.582 19.718c1.2-.442 2.367.725 1.925 1.926l-2.619 7.114a1 1 0 0 1-1.645.362l-5.138-5.138a1 1 0 0 1 .362-1.645z"/><g filter="url(#svg-7f653898-25ee-4684-af7b-40280be5e079-h)"><path fill="url(#svg-92a92929-b4f2-49b7-b42b-11539ce9eb86-i)" d="M22.4 3.55a.15.15 0 0 1 .162.034l5.885 5.93a.15.15 0 0 1 .033.162c-1.41 3.46-3.353 7.14-5.954 9.742-2.534 2.534-6.82 4.693-10.69 6.281l-5.491-5.492c1.588-3.87 3.747-8.155 6.281-10.689 2.61-2.61 6.304-4.557 9.773-5.967"/><path fill="url(#svg-7fa41204-e372-4125-8407-8e7d9ff88c18-j)" d="M22.4 3.55a.15.15 0 0 1 .162.034l5.885 5.93a.15.15 0 0 1 .033.162c-1.41 3.46-3.353 7.14-5.954 9.742-2.534 2.534-6.82 4.693-10.69 6.281l-5.491-5.492c1.588-3.87 3.747-8.155 6.281-10.689 2.61-2.61 6.304-4.557 9.773-5.967"/><path fill="url(#svg-4d9958da-3b2f-49f7-9ef3-518edd3e4b6c-k)" d="M22.4 3.55a.15.15 0 0 1 .162.034l5.885 5.93a.15.15 0 0 1 .033.162c-1.41 3.46-3.353 7.14-5.954 9.742-2.534 2.534-6.82 4.693-10.69 6.281l-5.491-5.492c1.588-3.87 3.747-8.155 6.281-10.689 2.61-2.61 6.304-4.557 9.773-5.967"/><path fill="url(#svg-8bba982a-63ac-4b09-9c12-f26a61bc429f-l)" d="M22.4 3.55a.15.15 0 0 1 .162.034l5.885 5.93a.15.15 0 0 1 .033.162c-1.41 3.46-3.353 7.14-5.954 9.742-2.534 2.534-6.82 4.693-10.69 6.281l-5.491-5.492c1.588-3.87 3.747-8.155 6.281-10.689 2.61-2.61 6.304-4.557 9.773-5.967"/><path fill="url(#svg-8a23f0c7-da8f-45e1-b38f-8c9216f7d0d3-m)" d="M22.4 3.55a.15.15 0 0 1 .162.034l5.885 5.93a.15.15 0 0 1 .033.162c-1.41 3.46-3.353 7.14-5.954 9.742-2.534 2.534-6.82 4.693-10.69 6.281l-5.491-5.492c1.588-3.87 3.747-8.155 6.281-10.689 2.61-2.61 6.304-4.557 9.773-5.967"/></g><g filter="url(#svg-c62f2e8b-fda7-440c-abf4-5cc27d864257-n)"><path fill="url(#svg-b22a9000-22b9-4d17-9519-8fdb53b08268-o)" d="M24.5 11.062a3.36 3.36 0 1 1-6.719 0 3.36 3.36 0 0 1 6.719 0"/><path fill="url(#svg-e338ce54-ee00-4fd2-87ea-54f413af686d-p)" d="M24.5 11.062a3.36 3.36 0 1 1-6.719 0 3.36 3.36 0 0 1 6.719 0"/></g><path fill="url(#svg-d186528e-4591-4a40-87f1-fda002a446ae-q)" d="M23.466 11.062a2.326 2.326 0 1 1-4.651 0 2.326 2.326 0 0 1 4.651 0"/><g filter="url(#svg-0916bfbe-e9c4-4c89-91a4-14aa6db21e8e-r)"><path fill="url(#svg-24369c97-ecb4-40c7-ac37-cfc4110d3bc0-s)" d="M2.423 29.533C1.716 28.826 2 23.922 4.5 22.922c0 0 2.5-1 4.111.6s.889 3.4.889 3.4c-.707 2.121-3.717 2.964-4.071 2.61-.195-.195.156-.55 0-.706-.156-.157-.398.022-1.06.353-.472.236-1.663.637-1.946.354"/><path fill="url(#svg-ba94e2f2-dc69-42f1-8fb3-08b764b688b6-t)" d="M2.423 29.533C1.716 28.826 2 23.922 4.5 22.922c0 0 2.5-1 4.111.6s.889 3.4.889 3.4c-.707 2.121-3.717 2.964-4.071 2.61-.195-.195.156-.55 0-.706-.156-.157-.398.022-1.06.353-.472.236-1.663.637-1.946.354"/></g><path fill="url(#svg-5d3c76cb-96a9-48c0-9286-c19c9c275689-u)" d="M6.06 20.982a1.5 1.5 0 0 1 2.122 0l3.535 3.536a1.5 1.5 0 0 1-2.12 2.121L6.06 23.104a1.5 1.5 0 0 1 0-2.122"/><path fill="url(#svg-bc479816-ac81-4761-90b0-d18b5322a29c-v)" d="M6.06 20.982a1.5 1.5 0 0 1 2.122 0l3.535 3.536a1.5 1.5 0 0 1-2.12 2.121L6.06 23.104a1.5 1.5 0 0 1 0-2.122"/><path fill="url(#svg-33a80336-d128-470b-bbb5-ecf921bad028-w)" d="M6.06 20.982a1.5 1.5 0 0 1 2.122 0l3.535 3.536a1.5 1.5 0 0 1-2.12 2.121L6.06 23.104a1.5 1.5 0 0 1 0-2.122"/><path fill="url(#svg-f6de02d2-6f19-4131-aa90-d8a1ef0b476f-x)" d="M29.172 2.871c-.947-.947-2.608-.84-3.818-.424a58 58 0 0 0-2.714 1.007.1.1 0 0 0-.034.163l5.81 5.849a.1.1 0 0 0 .162-.033 58 58 0 0 0 1.019-2.743c.41-1.194.74-2.654-.425-3.819"/><path fill="url(#svg-c1e08f38-ae5e-4e6d-bdf6-56b695f2f238-y)" d="M29.172 2.871c-.947-.947-2.608-.84-3.818-.424a58 58 0 0 0-2.714 1.007.1.1 0 0 0-.034.163l5.81 5.849a.1.1 0 0 0 .162-.033 58 58 0 0 0 1.019-2.743c.41-1.194.74-2.654-.425-3.819"/><path fill="url(#svg-ea05a4e2-1836-41f6-87ae-21d207ef5ba5-z)" d="M29.172 2.871c-.947-.947-2.608-.84-3.818-.424a58 58 0 0 0-2.714 1.007.1.1 0 0 0-.034.163l5.81 5.849a.1.1 0 0 0 .162-.033 58 58 0 0 0 1.019-2.743c.41-1.194.74-2.654-.425-3.819"/><path fill="url(#svg-f28fd54f-d8cf-467e-99db-a26100b8fa2a-A)" d="M13.582 16.718c1.2-.442 2.367.725 1.925 1.926l-2.618 7.114a1 1 0 0 1-1.646.362l-5.138-5.138a1 1 0 0 1 .362-1.645z"/><path fill="url(#svg-5c16ca01-2054-441e-a609-530e115d977c-B)" d="M13.582 16.718c1.2-.442 2.367.725 1.925 1.926l-2.618 7.114a1 1 0 0 1-1.646.362l-5.138-5.138a1 1 0 0 1 .362-1.645z"/><path fill="url(#svg-f6a8bc1c-8dc6-4c37-b570-424aaf02a1f4-C)" d="M13.582 16.718c1.2-.442 2.367.725 1.925 1.926l-2.618 7.114a1 1 0 0 1-1.646.362l-5.138-5.138a1 1 0 0 1 .362-1.645z"/><path fill="url(#svg-733db806-33a6-4df6-a85c-366c9e998854-D)" d="M13.582 16.718c1.2-.442 2.367.725 1.925 1.926l-2.618 7.114a1 1 0 0 1-1.646.362l-5.138-5.138a1 1 0 0 1 .362-1.645z"/><g filter="url(#svg-f05bf08b-c807-4ec8-bd14-0b61e25fb7aa-E)"><path fill="url(#svg-719bd3d7-5ef5-490e-99e7-f096d49e3b3b-F)" d="m9.205 22.047 5.625-4.407-3.625 6.438z"/></g></g><defs><radialGradient id="svg-22bdf305-e7e5-4acb-95c7-1fb44ff5ee4d-c" cx="0" cy="0" r="1" gradientTransform="rotate(-19.958 49.689 1.718)scale(8.00168 1.36045)" gradientUnits="userSpaceOnUse"><stop offset=".164" stop-color="#ff8db0"/><stop offset="1" stop-color="#ff8db0" stop-opacity="0"/></radialGradient><radialGradient id="svg-dc20a168-14cb-4093-b846-c198fcac051e-f" cx="0" cy="0" r="1" gradientTransform="rotate(86.482 -4.515 18.853)scale(7.63907 6.58606)" gradientUnits="userSpaceOnUse"><stop offset=".757" stop-color="#e76cbe" stop-opacity="0"/><stop offset=".951" stop-color="#e76cbe"/></radialGradient><radialGradient id="svg-0adf72aa-e358-4b68-beb1-d161c46078a2-g" cx="0" cy="0" r="1" gradientTransform="rotate(-57.346 30.713 .816)scale(5.27051 2.31507)" gradientUnits="userSpaceOnUse"><stop stop-color="#ff5898"/><stop offset="1" stop-color="#ff5898" stop-opacity="0"/></radialGradient><radialGradient id="svg-7fa41204-e372-4125-8407-8e7d9ff88c18-j" cx="0" cy="0" r="1" gradientTransform="rotate(217.553 15.652 6.714)scale(16.6769 31.3483)" gradientUnits="userSpaceOnUse"><stop offset=".811" stop-color="#e7e5e5" stop-opacity="0"/><stop offset="1" stop-color="#e7e5e5"/></radialGradient><radialGradient id="svg-4d9958da-3b2f-49f7-9ef3-518edd3e4b6c-k" cx="0" cy="0" r="1" gradientTransform="rotate(-56.93 24.243 2.187)scale(9.80381 4.6077)" gradientUnits="userSpaceOnUse"><stop offset=".281" stop-color="#b5a3a5"/><stop offset="1" stop-color="#b5a3a5" stop-opacity="0"/></radialGradient><radialGradient id="svg-8bba982a-63ac-4b09-9c12-f26a61bc429f-l" cx="0" cy="0" r="1" gradientTransform="rotate(-73.625 16.594 5.807)scale(8.69119 1.4727)" gradientUnits="userSpaceOnUse"><stop offset=".208" stop-color="#b28f96"/><stop offset="1" stop-color="#b28f96" stop-opacity="0"/></radialGradient><radialGradient id="svg-8a23f0c7-da8f-45e1-b38f-8c9216f7d0d3-m" cx="0" cy="0" r="1" gradientTransform="rotate(137.284 12.165 8.855)scale(13.175 4.09069)" gradientUnits="userSpaceOnUse"><stop stop-color="#faecf1"/><stop offset="1" stop-color="#faecf1" stop-opacity="0"/></radialGradient><radialGradient id="svg-e338ce54-ee00-4fd2-87ea-54f413af686d-p" cx="0" cy="0" r="1" gradientTransform="rotate(90 5.04 16.102)scale(3.35938)" gradientUnits="userSpaceOnUse"><stop offset=".587" stop-color="#93859b"/><stop offset="1" stop-color="#93859b" stop-opacity="0"/></radialGradient><radialGradient id="svg-d186528e-4591-4a40-87f1-fda002a446ae-q" cx="0" cy="0" r="1" gradientTransform="matrix(0 -4.84559 4.45626 0 21.14 13.388)" gradientUnits="userSpaceOnUse"><stop stop-color="#72cdff"/><stop offset=".738" stop-color="#66acff"/><stop offset="1" stop-color="#3b57f4"/></radialGradient><radialGradient id="svg-24369c97-ecb4-40c7-ac37-cfc4110d3bc0-s" cx="0" cy="0" r="1" gradientTransform="rotate(135 -.926 13.82)scale(5.80645 4.56401)" gradientUnits="userSpaceOnUse"><stop stop-color="#d46213"/><stop offset="1" stop-color="#ff9542"/></radialGradient><radialGradient id="svg-ba94e2f2-dc69-42f1-8fb3-08b764b688b6-t" cx="0" cy="0" r="1" gradientTransform="rotate(228.814 10.725 12.601)scale(7.17453 7.56076)" gradientUnits="userSpaceOnUse"><stop offset=".871" stop-color="#ffc484" stop-opacity="0"/><stop offset="1" stop-color="#ffc484"/></radialGradient><radialGradient id="svg-bc479816-ac81-4761-90b0-d18b5322a29c-v" cx="0" cy="0" r="1" gradientTransform="rotate(77.829 -9.872 14.956)scale(1.6304 1.4405)" gradientUnits="userSpaceOnUse"><stop stop-color="#8e839a"/><stop offset="1" stop-color="#8e839a" stop-opacity="0"/></radialGradient><radialGradient id="svg-33a80336-d128-470b-bbb5-ecf921bad028-w" cx="0" cy="0" r="1" gradientTransform="rotate(47.936 -21.61 19.315)scale(6.2123 3.25637)" gradientUnits="userSpaceOnUse"><stop offset=".86" stop-color="#6175b9" stop-opacity="0"/><stop offset="1" stop-color="#6175b9"/></radialGradient><radialGradient id="svg-c1e08f38-ae5e-4e6d-bdf6-56b695f2f238-y" cx="0" cy="0" r="1" gradientTransform="rotate(135 13.469 8.126)scale(8.24677 1.9797)" gradientUnits="userSpaceOnUse"><stop offset=".189" stop-color="#ff5971"/><stop offset="1" stop-color="#ff5971" stop-opacity="0"/></radialGradient><radialGradient id="svg-5c16ca01-2054-441e-a609-530e115d977c-B" cx="0" cy="0" r="1" gradientTransform="rotate(-20.865 55.86 -7.223)scale(7.45782 1.95239)" gradientUnits="userSpaceOnUse"><stop stop-color="#ff95af"/><stop offset="1" stop-color="#ff95af" stop-opacity="0"/></radialGradient><radialGradient id="svg-f6a8bc1c-8dc6-4c37-b570-424aaf02a1f4-C" cx="0" cy="0" r="1" gradientTransform="matrix(3.27669 3.24305 -.95797 .9679 5.398 20.308)" gradientUnits="userSpaceOnUse"><stop offset=".382" stop-color="#e14678"/><stop offset="1" stop-color="#e14678" stop-opacity="0"/></radialGradient><radialGradient id="svg-733db806-33a6-4df6-a85c-366c9e998854-D" cx="0" cy="0" r="1" gradientTransform="matrix(.6875 7.375 -7.85914 .73263 11.58 19.14)" gradientUnits="userSpaceOnUse"><stop offset=".832" stop-color="#e67bc7" stop-opacity="0"/><stop offset="1" stop-color="#e67bc7"/></radialGradient><linearGradient id="svg-281b6d76-1e02-4f6e-9b2c-4959fd7c6337-b" x1="8.111" x2="3.111" y1="17.308" y2="16.484" gradientUnits="userSpaceOnUse"><stop stop-color="#ee2452"/><stop offset="1" stop-color="#f63e7a"/></linearGradient><linearGradient id="svg-62db1809-99c6-4f1a-bea7-d178918f3d24-d" x1="4.905" x2="5.72" y1="19.733" y2="18.938" gradientUnits="userSpaceOnUse"><stop offset=".491" stop-color="#dd467c"/><stop offset="1" stop-color="#dd467c" stop-opacity="0"/></linearGradient><linearGradient id="svg-a5a89375-eae7-4fd8-a85e-9355f04071a5-e" x1="17.892" x2="11.674" y1="21.672" y2="26.551" gradientUnits="userSpaceOnUse"><stop stop-color="#f83267"/><stop offset="1" stop-color="#ff3190"/></linearGradient><linearGradient id="svg-92a92929-b4f2-49b7-b42b-11539ce9eb86-i" x1="13.486" x2="22.298" y1="8.672" y2="17.547" gradientUnits="userSpaceOnUse"><stop stop-color="#ccbbc0"/><stop offset="1" stop-color="#ead2ec"/></linearGradient><linearGradient id="svg-b22a9000-22b9-4d17-9519-8fdb53b08268-o" x1="17.781" x2="24.5" y1="10.491" y2="11.062" gradientUnits="userSpaceOnUse"><stop stop-color="#a796a0"/><stop offset="1" stop-color="#a5959f"/></linearGradient><linearGradient id="svg-5d3c76cb-96a9-48c0-9286-c19c9c275689-u" x1="5.798" x2="11.298" y1="21.953" y2="27.359" gradientUnits="userSpaceOnUse"><stop stop-color="#452860"/><stop offset="1" stop-color="#51509f"/></linearGradient><linearGradient id="svg-f6de02d2-6f19-4131-aa90-d8a1ef0b476f-x" x1="29.177" x2="25.501" y1="2.876" y2="6.552" gradientUnits="userSpaceOnUse"><stop stop-color="#ff3745"/><stop offset="1" stop-color="#ed224b"/></linearGradient><linearGradient id="svg-ea05a4e2-1836-41f6-87ae-21d207ef5ba5-z" x1="25.822" x2="26.189" y1="6.797" y2="6.414" gradientUnits="userSpaceOnUse"><stop stop-color="#d2575e"/><stop offset="1" stop-color="#f93251" stop-opacity="0"/></linearGradient><linearGradient id="svg-f28fd54f-d8cf-467e-99db-a26100b8fa2a-A" x1="15.16" x2="8.674" y1="17.065" y2="23.551" gradientUnits="userSpaceOnUse"><stop stop-color="#ff2644"/><stop offset="1" stop-color="#ff2982"/></linearGradient><linearGradient id="svg-719bd3d7-5ef5-490e-99e7-f096d49e3b3b-F" x1="13.986" x2="9.861" y1="18.109" y2="22.422" gradientUnits="userSpaceOnUse"><stop stop-color="#ff5970"/><stop offset="1" stop-color="#ff5794"/></linearGradient><filter id="svg-7f653898-25ee-4684-af7b-40280be5e079-h" width="22.396" height="22.659" x="6.095" y="3.04" color-interpolation-filters="sRGB" filterUnits="userSpaceOnUse"><feFlood flood-opacity="0" result="BackgroundImageFix"/><feBlend in="SourceGraphic" in2="BackgroundImageFix" result="shape"/><feColorMatrix in="SourceAlpha" result="hardAlpha" values="0 0 0 0 0 0 0 0 0 0 0 0 0 0 0 0 0 0 127 0"/><feOffset dx="-.25" dy="-.5"/><feGaussianBlur stdDeviation=".75"/><feComposite in2="hardAlpha" k2="-1" k3="1" operator="arithmetic"/><feColorMatrix values="0 0 0 0 0.745098 0 0 0 0 0.772549 0 0 0 0 0.952941 0 0 0 1 0"/><feBlend in2="shape" result="effect1_innerShadow_18_13076"/></filter><filter id="svg-c62f2e8b-fda7-440c-abf4-5cc27d864257-n" width="8.719" height="8.719" x="16.781" y="6.953" color-interpolation-filters="sRGB" filterUnits="userSpaceOnUse"><feFlood flood-opacity="0" result="BackgroundImageFix"/><feColorMatrix in="SourceAlpha" result="hardAlpha" values="0 0 0 0 0 0 0 0 0 0 0 0 0 0 0 0 0 0 127 0"/><feOffset dy=".25"/><feGaussianBlur stdDeviation=".5"/><feComposite in2="hardAlpha" operator="out"/><feColorMatrix values="0 0 0 0 0.866667 0 0 0 0 0.764706 0 0 0 0 0.847059 0 0 0 1 0"/><feBlend in2="BackgroundImageFix" result="effect1_dropShadow_18_13076"/><feBlend in="SourceGraphic" in2="effect1_dropShadow_18_13076" result="shape"/><feColorMatrix in="SourceAlpha" result="hardAlpha" values="0 0 0 0 0 0 0 0 0 0 0 0 0 0 0 0 0 0 127 0"/><feOffset dx="-.1" dy=".1"/><feGaussianBlur stdDeviation=".05"/><feComposite in2="hardAlpha" k2="-1" k3="1" operator="arithmetic"/><feColorMatrix values="0 0 0 0 0.721569 0 0 0 0 0.690196 0 0 0 0 0.701961 0 0 0 1 0"/><feBlend in2="shape" result="effect2_innerShadow_18_13076"/><feColorMatrix in="SourceAlpha" result="hardAlpha" values="0 0 0 0 0 0 0 0 0 0 0 0 0 0 0 0 0 0 127 0"/><feOffset dx=".1" dy="-.1"/><feGaussianBlur stdDeviation=".05"/><feComposite in2="hardAlpha" k2="-1" k3="1" operator="arithmetic"/><feColorMatrix values="0 0 0 0 0.615686 0 0 0 0 0.560784 0 0 0 0 0.65098 0 0 0 1 0"/><feBlend in2="effect2_innerShadow_18_13076" result="effect3_innerShadow_18_13076"/></filter><filter id="svg-0916bfbe-e9c4-4c89-91a4-14aa6db21e8e-r" width="7.574" height="7.217" x="2.088" y="22.413" color-interpolation-filters="sRGB" filterUnits="userSpaceOnUse"><feFlood flood-opacity="0" result="BackgroundImageFix"/><feBlend in="SourceGraphic" in2="BackgroundImageFix" result="shape"/><feColorMatrix in="SourceAlpha" result="hardAlpha" values="0 0 0 0 0 0 0 0 0 0 0 0 0 0 0 0 0 0 127 0"/><feOffset dy="-.2"/><feGaussianBlur stdDeviation=".2"/><feComposite in2="hardAlpha" k2="-1" k3="1" operator="arithmetic"/><feColorMatrix values="0 0 0 0 0.847059 0 0 0 0 0.505882 0 0 0 0 0.360784 0 0 0 1 0"/><feBlend in2="shape" result="effect1_innerShadow_18_13076"/></filter><filter id="svg-f05bf08b-c807-4ec8-bd14-0b61e25fb7aa-E" width="7.625" height="8.438" x="8.205" y="16.64" color-interpolation-filters="sRGB" filterUnits="userSpaceOnUse"><feFlood flood-opacity="0" result="BackgroundImageFix"/><feBlend in="SourceGraphic" in2="BackgroundImageFix" result="shape"/><feGaussianBlur result="effect1_foregroundBlur_18_13076" stdDeviation=".5"/></filter><clipPath id="svg-17e806ff-dd25-4a3f-8e7e-7e88a6d75d30-a"><path fill="#fff" d="M0 0h32v32H0z"/></clipPath></defs></svg>