<svg xmlns="http://www.w3.org/2000/svg" fill="none" viewBox="0 0 32 32"><g filter="url(#svg-00b9a23d-0a2d-429e-bb22-afecfba3f8d8-a)"><path fill="url(#svg-4743fc90-4041-4841-ab23-914f08790792-b)" d="M2.675 13.65C4.61 9.86 9.057 5.378 16.172 5.378c7.134 0 11.531 4.247 13.457 8.311a2.61 2.61 0 0 1 .04 2.731c-2.504 4.324-6.383 8.272-13.497 8.272-.947 0-1.878-.041-2.73-.162-.46-.065-.934-.007-1.342.214-1.155.623-2.315 1.3-3.795 2.135a.657.657 0 0 1-.98-.613l.217-3.409a1.6 1.6 0 0 0-.584-1.315c-1.73-1.456-3.085-3.288-4.243-5.171-.525-.851-.544-1.86-.04-2.721"/><path fill="url(#svg-61828329-4c78-43ab-8bf3-bd7201ff6983-c)" d="M2.675 13.65C4.61 9.86 9.057 5.378 16.172 5.378c7.134 0 11.531 4.247 13.457 8.311a2.61 2.61 0 0 1 .04 2.731c-2.504 4.324-6.383 8.272-13.497 8.272-.947 0-1.878-.041-2.73-.162-.46-.065-.934-.007-1.342.214-1.155.623-2.315 1.3-3.795 2.135a.657.657 0 0 1-.98-.613l.217-3.409a1.6 1.6 0 0 0-.584-1.315c-1.73-1.456-3.085-3.288-4.243-5.171-.525-.851-.544-1.86-.04-2.721"/><path fill="url(#svg-4625630e-dc7a-4e50-b4a8-cdc62d275d4a-d)" d="M2.675 13.65C4.61 9.86 9.057 5.378 16.172 5.378c7.134 0 11.531 4.247 13.457 8.311a2.61 2.61 0 0 1 .04 2.731c-2.504 4.324-6.383 8.272-13.497 8.272-.947 0-1.878-.041-2.73-.162-.46-.065-.934-.007-1.342.214-1.155.623-2.315 1.3-3.795 2.135a.657.657 0 0 1-.98-.613l.217-3.409a1.6 1.6 0 0 0-.584-1.315c-1.73-1.456-3.085-3.288-4.243-5.171-.525-.851-.544-1.86-.04-2.721"/><path fill="url(#svg-1427ec2f-5293-435e-a3dc-834cdae87088-e)" d="M2.675 13.65C4.61 9.86 9.057 5.378 16.172 5.378c7.134 0 11.531 4.247 13.457 8.311a2.61 2.61 0 0 1 .04 2.731c-2.504 4.324-6.383 8.272-13.497 8.272-.947 0-1.878-.041-2.73-.162-.46-.065-.934-.007-1.342.214-1.155.623-2.315 1.3-3.795 2.135a.657.657 0 0 1-.98-.613l.217-3.409a1.6 1.6 0 0 0-.584-1.315c-1.73-1.456-3.085-3.288-4.243-5.171-.525-.851-.544-1.86-.04-2.721"/><path fill="url(#svg-7cf892cf-9f2b-4996-ad65-56f557d72f2e-f)" d="M2.675 13.65C4.61 9.86 9.057 5.378 16.172 5.378c7.134 0 11.531 4.247 13.457 8.311a2.61 2.61 0 0 1 .04 2.731c-2.504 4.324-6.383 8.272-13.497 8.272-.947 0-1.878-.041-2.73-.162-.46-.065-.934-.007-1.342.214-1.155.623-2.315 1.3-3.795 2.135a.657.657 0 0 1-.98-.613l.217-3.409a1.6 1.6 0 0 0-.584-1.315c-1.73-1.456-3.085-3.288-4.243-5.171-.525-.851-.544-1.86-.04-2.721"/></g><g filter="url(#svg-0a3cc654-5166-41c1-9142-0baee049a4ba-g)"><path fill="url(#svg-142268e9-bb37-4f07-a28b-a02fb52557f6-h)" d="m8.738 21.117-.584 4.505a.25.25 0 0 0 .373.249l3.922-2.28-1.268-2.258z"/></g><g filter="url(#svg-ffd39250-122f-4d85-9533-d064736c3740-i)"><ellipse cx="16.172" cy="16.172" fill="#dbd1f0" fill-opacity=".5" rx="8.72" ry="5.69"/></g><defs><radialGradient id="svg-4743fc90-4041-4841-ab23-914f08790792-b" cx="0" cy="0" r="1" gradientTransform="rotate(108.693 9.138 11.635)scale(17.3662 42.1894)" gradientUnits="userSpaceOnUse"><stop stop-color="#fff"/><stop offset="1" stop-color="#d7c6de"/></radialGradient><radialGradient id="svg-61828329-4c78-43ab-8bf3-bd7201ff6983-c" cx="0" cy="0" r="1" gradientTransform="rotate(241.65 12.527 7.828)scale(19.5353 28.2519)" gradientUnits="userSpaceOnUse"><stop offset=".619" stop-color="#cecece" stop-opacity="0"/><stop offset="1" stop-color="#cecece"/></radialGradient><radialGradient id="svg-4625630e-dc7a-4e50-b4a8-cdc62d275d4a-d" cx="0" cy="0" r="1" gradientTransform="rotate(188.985 14.753 10.631)scale(29.302 42.3765)" gradientUnits="userSpaceOnUse"><stop offset=".781" stop-color="#cecece" stop-opacity="0"/><stop offset="1" stop-color="#cecece"/></radialGradient><radialGradient id="svg-1427ec2f-5293-435e-a3dc-834cdae87088-e" cx="0" cy="0" r="1" gradientTransform="rotate(-38.581 41.286 -4.92)scale(28.1634 40.7298)" gradientUnits="userSpaceOnUse"><stop offset=".645" stop-color="#cecece" stop-opacity="0"/><stop offset="1" stop-color="#cecece"/></radialGradient><radialGradient id="svg-7cf892cf-9f2b-4996-ad65-56f557d72f2e-f" cx="0" cy="0" r="1" gradientTransform="rotate(81.17 2.838 13.173)scale(25.7848 28.6826)" gradientUnits="userSpaceOnUse"><stop offset=".464" stop-color="#b6a8f2" stop-opacity="0"/><stop offset="1" stop-color="#b6a8f2"/></radialGradient><filter id="svg-00b9a23d-0a2d-429e-bb22-afecfba3f8d8-a" width="27.726" height="21.598" x="2.309" y="5.378" color-interpolation-filters="sRGB" filterUnits="userSpaceOnUse"><feFlood flood-opacity="0" result="BackgroundImageFix"/><feBlend in="SourceGraphic" in2="BackgroundImageFix" result="shape"/><feColorMatrix in="SourceAlpha" result="hardAlpha" values="0 0 0 0 0 0 0 0 0 0 0 0 0 0 0 0 0 0 127 0"/><feOffset dy=".01"/><feGaussianBlur stdDeviation=".25"/><feComposite in2="hardAlpha" k2="-1" k3="1" operator="arithmetic"/><feColorMatrix values="0 0 0 0 0.758333 0 0 0 0 0.758333 0 0 0 0 0.758333 0 0 0 1 0"/><feBlend in2="shape" result="effect1_innerShadow_7154_6147"/></filter><filter id="svg-0a3cc654-5166-41c1-9142-0baee049a4ba-g" width="6.297" height="6.789" x="7.152" y="20.117" color-interpolation-filters="sRGB" filterUnits="userSpaceOnUse"><feFlood flood-opacity="0" result="BackgroundImageFix"/><feBlend in="SourceGraphic" in2="BackgroundImageFix" result="shape"/><feGaussianBlur result="effect1_foregroundBlur_7154_6147" stdDeviation=".5"/></filter><filter id="svg-ffd39250-122f-4d85-9533-d064736c3740-i" width="27.44" height="21.379" x="2.452" y="5.482" color-interpolation-filters="sRGB" filterUnits="userSpaceOnUse"><feFlood flood-opacity="0" result="BackgroundImageFix"/><feBlend in="SourceGraphic" in2="BackgroundImageFix" result="shape"/><feGaussianBlur result="effect1_foregroundBlur_7154_6147" stdDeviation="2.5"/></filter><linearGradient id="svg-142268e9-bb37-4f07-a28b-a02fb52557f6-h" x1="10.268" x2="13.191" y1="26.404" y2="20.931" gradientUnits="userSpaceOnUse"><stop stop-color="#dcd0f4"/><stop offset="1" stop-color="#ded0f9" stop-opacity="0"/></linearGradient></defs></svg>