<svg xmlns="http://www.w3.org/2000/svg" fill="none" viewBox="0 0 32 32"><g filter="url(#svg-9861df3c-4369-4612-9659-f5d108b078d2-a)"><path fill="url(#svg-68a7bec6-7d6a-4ff2-ac43-b1333a0571c4-b)" d="M2.55 6.642c0-1.78.884-3.406 1.587-3.96l8.734 8.562c-.375.5-1.195 1.031-2.172 1.484-.539.328-1.086.961-.672 2.024 2.375 4.101 6.391 6.93 7.422 7.148.743.158 1.383-.14 1.813-1.203.476-.953 1.031-1.625 1.36-1.922l8.827 8.758c-.52.688-1.937 1.922-4.562 1.773-5.203-.109-11.516-1.89-16.594-7.406C2.918 15.838 2.551 8.892 2.551 6.642"/><path fill="url(#svg-186a64a8-bde9-462d-9751-7db1d65422aa-c)" d="M2.55 6.642c0-1.78.884-3.406 1.587-3.96l8.734 8.562c-.375.5-1.195 1.031-2.172 1.484-.539.328-1.086.961-.672 2.024 2.375 4.101 6.391 6.93 7.422 7.148.743.158 1.383-.14 1.813-1.203.476-.953 1.031-1.625 1.36-1.922l8.827 8.758c-.52.688-1.937 1.922-4.562 1.773-5.203-.109-11.516-1.89-16.594-7.406C2.918 15.838 2.551 8.892 2.551 6.642"/></g><g filter="url(#svg-79c412dd-5e55-442c-9972-ae1265e2e925-d)"><path fill="url(#svg-bdca1261-c49a-402c-8738-c4f33a6d0f8c-e)" d="M4.477 3.186q.04-.036.08-.067l7.986 7.826a5.76 5.76 0 0 1-8.066-7.759"/></g><g filter="url(#svg-22925b16-b2a6-49bc-9031-6fb73659f4ce-f)"><path fill="url(#svg-6e119d1d-c859-4fbb-82d6-21dec8a9acba-g)" d="M20.809 19.713c.133-.161.255-.288.354-.379L29.2 27.39l-.082.105a5.94 5.94 0 0 1-3.71 1.296c-3.307 0-5.989-2.703-5.989-6.036 0-1.254.742-2.078 1.39-3.042"/><path fill="url(#svg-d197f33b-95a7-4d47-bbe0-fdf458d366d0-h)" d="M20.809 19.713c.133-.161.255-.288.354-.379L29.2 27.39l-.082.105a5.94 5.94 0 0 1-3.71 1.296c-3.307 0-5.989-2.703-5.989-6.036 0-1.254.742-2.078 1.39-3.042"/><path fill="url(#svg-988bb0d8-e91e-44f8-9272-e56709ac0ace-i)" d="M20.809 19.713c.133-.161.255-.288.354-.379L29.2 27.39l-.082.105a5.94 5.94 0 0 1-3.71 1.296c-3.307 0-5.989-2.703-5.989-6.036 0-1.254.742-2.078 1.39-3.042"/></g><g filter="url(#svg-d05cd1bf-2d1c-4e8b-8395-abdd5b76a8ae-j)"><path fill="url(#svg-0d05fc91-d956-4507-b42a-0b7f8aaf8aef-k)" d="M4.532 2.02a1.75 1.75 0 0 1 2.475 0l6.463 6.463a1.75 1.75 0 0 1 0 2.475l-.48.48a.4.4 0 0 1-.566 0L4.052 3.066a.4.4 0 0 1 0-.566z"/><path fill="url(#svg-1590c3a4-4407-407a-ba7e-0a56f5517d3c-l)" d="M4.532 2.02a1.75 1.75 0 0 1 2.475 0l6.463 6.463a1.75 1.75 0 0 1 0 2.475l-.48.48a.4.4 0 0 1-.566 0L4.052 3.066a.4.4 0 0 1 0-.566z"/><path fill="url(#svg-1f80a2e5-8273-49f8-a601-9d0b83f51ec0-m)" d="M4.532 2.02a1.75 1.75 0 0 1 2.475 0l6.463 6.463a1.75 1.75 0 0 1 0 2.475l-.48.48a.4.4 0 0 1-.566 0L4.052 3.066a.4.4 0 0 1 0-.566z"/></g><g filter="url(#svg-0bf9b40e-c3b1-4f2e-9fe4-f709991528c4-n)"><path fill="url(#svg-25af54ea-04eb-4a55-8ef7-160a25619d15-o)" d="M20.842 18.369c.683-.683 1.714-.648 2.474 0 .954.812 5.922 5.781 6.552 6.551s.683 1.792 0 2.475l-.48.48a.4.4 0 0 1-.566 0l-8.46-8.46a.4.4 0 0 1 0-.566z"/><path fill="url(#svg-75236d64-747b-4a24-91bc-ea4fb1e7d35b-p)" d="M20.842 18.369c.683-.683 1.714-.648 2.474 0 .954.812 5.922 5.781 6.552 6.551s.683 1.792 0 2.475l-.48.48a.4.4 0 0 1-.566 0l-8.46-8.46a.4.4 0 0 1 0-.566z"/></g><g filter="url(#svg-f0fea438-1ed3-4564-b6bc-039736329744-q)"><path fill="url(#svg-164c2c70-031e-471b-b366-1e2a57b318d5-r)" d="M10.73 20.33c-3.188-3.004-3.864-5.854-4.25-7.188h2.094c-.02.417.738 3.082 2.656 5.094 4.032 4.227 7.157 5.737 8.532 6.227-1.5-.125-4.313.312-9.032-4.133"/></g><defs><radialGradient id="svg-186a64a8-bde9-462d-9751-7db1d65422aa-c" cx="0" cy="0" r="1" gradientTransform="matrix(-1 20.0625 -36.3312 -1.8109 21.98 9.681)" gradientUnits="userSpaceOnUse"><stop offset=".792" stop-color="#d43eb0" stop-opacity="0"/><stop offset="1" stop-color="#d43eb0"/></radialGradient><radialGradient id="svg-bdca1261-c49a-402c-8738-c4f33a6d0f8c-e" cx="0" cy="0" r="1" gradientTransform="rotate(131.057 3.196 6.719)scale(3.4119 5.68442)" gradientUnits="userSpaceOnUse"><stop offset=".2" stop-color="#f52958"/><stop offset="1" stop-color="#db2148"/></radialGradient><radialGradient id="svg-6e119d1d-c859-4fbb-82d6-21dec8a9acba-g" cx="0" cy="0" r="1" gradientTransform="rotate(132.154 7.762 17.84)scale(4.60709 7.09579)" gradientUnits="userSpaceOnUse"><stop offset=".293" stop-color="#fb29ab"/><stop offset="1" stop-color="#fb29ab" stop-opacity="0"/></radialGradient><radialGradient id="svg-d197f33b-95a7-4d47-bbe0-fdf458d366d0-h" cx="0" cy="0" r="1" gradientTransform="rotate(111.493 4.722 19.462)scale(6.36167 8.74951)" gradientUnits="userSpaceOnUse"><stop offset=".581" stop-color="#d82ba8" stop-opacity="0"/><stop offset=".945" stop-color="#d531aa"/></radialGradient><radialGradient id="svg-988bb0d8-e91e-44f8-9272-e56709ac0ace-i" cx="0" cy="0" r="1" gradientTransform="rotate(114.776 4.182 16.356)scale(4.25662 2.76717)" gradientUnits="userSpaceOnUse"><stop stop-color="#ce4b6e"/><stop offset="1" stop-color="#ce4b6e" stop-opacity="0"/></radialGradient><radialGradient id="svg-0d05fc91-d956-4507-b42a-0b7f8aaf8aef-k" cx="0" cy="0" r="1" gradientTransform="rotate(132.416 3.997 4.737)scale(3.86518 7.61725)" gradientUnits="userSpaceOnUse"><stop stop-color="#c8439b"/><stop offset="1" stop-color="#b73098"/></radialGradient><radialGradient id="svg-1590c3a4-4407-407a-ba7e-0a56f5517d3c-l" cx="0" cy="0" r="1" gradientTransform="rotate(137.661 4.038 5.32)scale(1.52198 6.58497)" gradientUnits="userSpaceOnUse"><stop offset=".144" stop-color="#dd6cb6"/><stop offset="1" stop-color="#db69b6" stop-opacity="0"/></radialGradient><radialGradient id="svg-1f80a2e5-8273-49f8-a601-9d0b83f51ec0-m" cx="0" cy="0" r="1" gradientTransform="rotate(188.768 5.596 1.988)scale(6.97045 11.6995)" gradientUnits="userSpaceOnUse"><stop offset=".578" stop-color="#a35479" stop-opacity="0"/><stop offset=".962" stop-color="#a35479"/></radialGradient><radialGradient id="svg-25af54ea-04eb-4a55-8ef7-160a25619d15-o" cx="0" cy="0" r="1" gradientTransform="rotate(132.397 8.559 16.538)scale(3.8931 7.67182)" gradientUnits="userSpaceOnUse"><stop stop-color="#bd3995"/><stop offset="1" stop-color="#ac3ba4"/></radialGradient><radialGradient id="svg-75236d64-747b-4a24-91bc-ea4fb1e7d35b-p" cx="0" cy="0" r="1" gradientTransform="rotate(137.226 8.719 16.638)scale(1.51947 5.12615)" gradientUnits="userSpaceOnUse"><stop stop-color="#db69b6"/><stop offset="1" stop-color="#db69b6" stop-opacity="0"/></radialGradient><filter id="svg-9861df3c-4369-4612-9659-f5d108b078d2-a" width="27.898" height="26.637" x="2.551" y="2.681" color-interpolation-filters="sRGB" filterUnits="userSpaceOnUse"><feFlood flood-opacity="0" result="BackgroundImageFix"/><feBlend in="SourceGraphic" in2="BackgroundImageFix" result="shape"/><feColorMatrix in="SourceAlpha" result="hardAlpha" values="0 0 0 0 0 0 0 0 0 0 0 0 0 0 0 0 0 0 127 0"/><feOffset dx="1"/><feGaussianBlur stdDeviation="1"/><feComposite in2="hardAlpha" k2="-1" k3="1" operator="arithmetic"/><feColorMatrix values="0 0 0 0 0.827451 0 0 0 0 0.317647 0 0 0 0 0.313726 0 0 0 1 0"/><feBlend in2="shape" result="effect1_innerShadow_18_19175"/></filter><filter id="svg-79c412dd-5e55-442c-9972-ae1265e2e925-d" width="10.844" height="10.719" x="2.699" y="2.119" color-interpolation-filters="sRGB" filterUnits="userSpaceOnUse"><feFlood flood-opacity="0" result="BackgroundImageFix"/><feBlend in="SourceGraphic" in2="BackgroundImageFix" result="shape"/><feGaussianBlur result="effect1_foregroundBlur_18_19175" stdDeviation=".5"/></filter><filter id="svg-22925b16-b2a6-49bc-9031-6fb73659f4ce-f" width="11.781" height="11.457" x="18.418" y="18.334" color-interpolation-filters="sRGB" filterUnits="userSpaceOnUse"><feFlood flood-opacity="0" result="BackgroundImageFix"/><feBlend in="SourceGraphic" in2="BackgroundImageFix" result="shape"/><feGaussianBlur result="effect1_foregroundBlur_18_19175" stdDeviation=".5"/></filter><filter id="svg-d05cd1bf-2d1c-4e8b-8395-abdd5b76a8ae-j" width="10.197" height="10.197" x="3.935" y="1.358" color-interpolation-filters="sRGB" filterUnits="userSpaceOnUse"><feFlood flood-opacity="0" result="BackgroundImageFix"/><feBlend in="SourceGraphic" in2="BackgroundImageFix" result="shape"/><feColorMatrix in="SourceAlpha" result="hardAlpha" values="0 0 0 0 0 0 0 0 0 0 0 0 0 0 0 0 0 0 127 0"/><feOffset dx=".15" dy="-.15"/><feGaussianBlur stdDeviation=".4"/><feComposite in2="hardAlpha" k2="-1" k3="1" operator="arithmetic"/><feColorMatrix values="0 0 0 0 0.623529 0 0 0 0 0.321569 0 0 0 0 0.47451 0 0 0 1 0"/><feBlend in2="shape" result="effect1_innerShadow_18_19175"/></filter><filter id="svg-0bf9b40e-c3b1-4f2e-9fe4-f709991528c4-n" width="10.266" height="10.273" x="20.245" y="17.72" color-interpolation-filters="sRGB" filterUnits="userSpaceOnUse"><feFlood flood-opacity="0" result="BackgroundImageFix"/><feBlend in="SourceGraphic" in2="BackgroundImageFix" result="shape"/><feColorMatrix in="SourceAlpha" result="hardAlpha" values="0 0 0 0 0 0 0 0 0 0 0 0 0 0 0 0 0 0 127 0"/><feOffset dx=".15" dy="-.15"/><feGaussianBlur stdDeviation=".4"/><feComposite in2="hardAlpha" k2="-1" k3="1" operator="arithmetic"/><feColorMatrix values="0 0 0 0 0.623529 0 0 0 0 0.321569 0 0 0 0 0.47451 0 0 0 1 0"/><feBlend in2="shape" result="effect1_innerShadow_18_19175"/></filter><filter id="svg-f0fea438-1ed3-4564-b6bc-039736329744-q" width="16.781" height="14.82" x="4.73" y="11.392" color-interpolation-filters="sRGB" filterUnits="userSpaceOnUse"><feFlood flood-opacity="0" result="BackgroundImageFix"/><feBlend in="SourceGraphic" in2="BackgroundImageFix" result="shape"/><feGaussianBlur result="effect1_foregroundBlur_18_19175" stdDeviation=".875"/></filter><linearGradient id="svg-68a7bec6-7d6a-4ff2-ac43-b1333a0571c4-b" x1="-.645" x2="22.855" y1="6.431" y2="28.556" gradientUnits="userSpaceOnUse"><stop stop-color="#e12d3e"/><stop offset="1" stop-color="#e821a1"/></linearGradient><linearGradient id="svg-164c2c70-031e-471b-b366-1e2a57b318d5-r" x1="7.543" x2="15.168" y1="13.049" y2="22.205" gradientUnits="userSpaceOnUse"><stop stop-color="#ff6670"/><stop offset="1" stop-color="#ff5693"/></linearGradient></defs></svg>